<svg xmlns="http://www.w3.org/2000/svg" width="60" height="55" viewBox="0 0 60 55">
  <g id="Group_42772" data-name="Group 42772" transform="translate(12607 -1059)">
    <g id="APY" transform="translate(-13419.254 653.76)">
      <path id="Path_42880" data-name="Path 42880" d="M868.571,420.115l-3.522-3.25h-.474c-4.25,4.5-8.642,8.864-12.969,13.295-1.248,1.278-2.413,2.7-3.672,3.965-1.591,1.6-3.708,4.646-6.163,2.922l-10.539-10.591L816.24,441.862a2.573,2.573,0,0,1-3.642-3.444c5.37-5.528,10.5-11.352,15.97-16.8,1.2-1.2,2.545-2.259,4.243-1.024a53.935,53.935,0,0,1,4.717,4.665c1.869,1.891,3.657,3.884,5.517,5.786l.548.129,17.457-18.1c0-.29-3-2.587-3.364-3.157a.666.666,0,0,1-.154-.561l14.72-4.115-3.68,14.875Z" transform="translate(0 0)" fill="#fbbc05"/>
      <path id="Path_42881" data-name="Path 42881" d="M1046.7,521.49h-7.954V486.766l4.324-4.441c.45-.078,3.1,2.863,3.63,3.307Z" transform="translate(-178.346 -61.253)" fill="#fbbc05"/>
      <path id="Path_42882" data-name="Path 42882" d="M1002.292,544.279H994.5V519.59c1.268-1.424,2.58-2.84,3.9-4.212a32.784,32.784,0,0,0,3.731-3.963c.08-.056.253.149.288.277.292,1.05-.379,2.85-.136,4.021.288,8.095-.052,16.172,0,24.284.009,1.387.418,2.846.009,4.283Z" transform="translate(-143.452 -84.041)" fill="#fbbc05"/>
      <path id="Path_42883" data-name="Path 42883" d="M905.25,533.083c.284-.071.325.117.489.242,1.853,1.415,4.42,4.684,6.16,6.484.394.407.959.651,1.307,1.125V561.01l-.242.242h-7.709V533.083Z" transform="translate(-73.2 -101.014)" fill="#fbbc05"/>
      <path id="Path_42884" data-name="Path 42884" d="M861,561.464V541.47l7.543-8.015c.128-.271.411,0,.411.082v27.684l-.242.242H861Z" transform="translate(-38.37 -101.226)" fill="#fbbc05"/>
      <path id="Path_42885" data-name="Path 42885" d="M958.042,580.647H950.25V561.22a6.878,6.878,0,0,0,4.331-.457c1.5-.7,2.249-2,3.461-2.943v22.827Z" transform="translate(-108.62 -120.41)" fill="#fbbc05"/>
      <path id="Path_42886" data-name="Path 42886" d="M823.954,580.222v17.971H816v-14.57a7.347,7.347,0,0,0,5.759-1.3,18.252,18.252,0,0,0,1.712-1.855c.156-.16.212-.305.485-.247Z" transform="translate(-2.936 -137.953)" fill="#fbbc05"/>
    </g>
  </g>
</svg>
