<svg id="brokeragre" xmlns="http://www.w3.org/2000/svg" width="60" height="39" viewBox="0 0 60 39">
  <path id="Path_42910" data-name="Path 42910" d="M908.687,512.27c.214.177-2.382,3.3-2.626,3.747-2.248,4.076-1.149,8.987,4.356,7.963,3.359-.623,4.943-4.038,8.341-4.34,1.92,2.187,16.525,14.1,16.689,15.639a1.967,1.967,0,0,1-1.832,2c-1.695.049-7.287-6.709-9.093-8.091-1.4-1.073-2.894-1.413-2.561.831l7.68,7.358c1.313,2.138-.618,3.872-2.79,2.758l-7.8-7.815c-1.195-.332-1.855.88-1.363,1.926.657,1.39,4.924,4.28,5.978,5.934,1.225,1.923-.134,3.777-2.34,2.875-1.851-.759-5.367-5.885-7.413-7.071a1.167,1.167,0,0,0-1.519.963c-.1,1.288,4.882,5.13,5.818,6.391.744,5.073-4.97-.117-6.631-1.364a126.729,126.729,0,0,1-16.09-14.566c-.382-.9.492-3.082.794-4.144.855-3.014,1.9-6.852,2.985-9.734a2.675,2.675,0,0,1,.725-1.258h8.7Z" transform="translate(-887.565 -506.522)" fill="#fbbc05"/>
  <path id="Path_42911" data-name="Path 42911" d="M952.264,509.916l5.772,15.487c.324,1.027-1.393,2.233-2.206,2.344-1.164.16-15.078-13.9-17.468-15.22a8.146,8.146,0,0,0-3.451.863c-2.271,1.031-5.039,4.844-7.627,3.646-2.829-1.309,1.13-6.413,2.355-7.768,2.47-2.729,6.188-5.455,10.085-4.359l12.54,5Z" transform="translate(-906.033 -501.817)" fill="#fbbc05"/>
  <path id="Path_42912" data-name="Path 42912" d="M1011.423,527.8c-.29,1.031-4.26,1.145-4.688-.164l-7.035-19.5c.011-1.565,2.756-1.993,4-2.279a38.019,38.019,0,0,1,6.444-.947c.351.011,1.271.454,1.271.672V527.8Z" transform="translate(-951.423 -501.975)" fill="#fbbc05"/>
  <path id="Path_42913" data-name="Path 42913" d="M874.89,497.693c.2-.637,2.672-.473,3.279-.424,1.149.1,6.428,1.393,6.856,2.271.355,1.535-.439,3.31-.859,4.84-1.439,5.253-3.317,10.429-4.867,15.651-.805,1.218-3.436,1.218-4.409.156v-22.5Z" transform="translate(-874.89 -497.213)" fill="#fbbc05"/>
</svg>
