<svg xmlns="http://www.w3.org/2000/svg" width="60" height="46" viewBox="0 0 60 46">
  <g id="Group_42773" data-name="Group 42773" transform="translate(12466 -1267)">
    <g id="CGRP" transform="translate(-13299.736 814.698)">
      <path id="Path_42899" data-name="Path 42899" d="M863.9,571.528l-6.315-12.567c3.947-2.357,6.947-5.177,11.776-5.516s7.044,1.667,11.216,2.716c3.848.967,8.553.9,12.313,1.971,3.335.947,2.366,5.586-.907,5.586-3.1,0-6.34-.5-9.447-.583a23.009,23.009,0,0,0-3.345.007.715.715,0,0,0-.28,1.216,40.717,40.717,0,0,0,4.732.648,59.05,59.05,0,0,0,11.1.164c2.292-.284,4.809-1.948,6.979-2.86,1.769-.742,5.753-2.462,7.512-2.526,2.906-.1,3.218,3.832.763,4.883-6.969,2.633-13.594,6.47-20.8,8.351-7.054-.578-13.993-2.474-20.978-3.672l-4.318,2.185Z" transform="translate(-17.903 -76.15)" fill="#4684f5"/>
      <path id="Path_42900" data-name="Path 42900" d="M1023.074,492.069c.837-.184,3.2-.274,3.406.8l.012,13.424c-.075,1.512-4.061,1.38-4.293.174l-.013-13.424A1.038,1.038,0,0,1,1023.074,492.069Z" transform="translate(-141.801 -29.85)" fill="#4684f5"/>
      <path id="Path_42901" data-name="Path 42901" d="M837.809,581.285l5.982,12.024a.554.554,0,0,1-.187.546,30.13,30.13,0,0,1-2.788,1.5,1.155,1.155,0,0,1-1.106-.411L833.755,584.3c-.324-.992,3.76-3.229,4.054-3.017Z" transform="translate(0 -97.074)" fill="#4684f5"/>
      <path id="Path_42902" data-name="Path 42902" d="M951.861,474.753c-.075-.4.184-.433.453-.571.934-.468,2.357-.79,3.4-1.261a29.937,29.937,0,0,0,13.471-11.5c-.025-.282-2.075-.944-1.111-1.679a38.689,38.689,0,0,1,4.054-.977.46.46,0,0,1,.434.219,36.2,36.2,0,0,1,1.074,4.345.431.431,0,0,1-.257.419c-.548.14-1.405-.8-1.654-.74-.137.032-1.4,1.911-1.689,2.235a27.984,27.984,0,0,1-18.175,9.5Z" transform="translate(-88.916 -4.857)" fill="#4684f5"/>
      <path id="Path_42903" data-name="Path 42903" d="M956.183,453.677a7.571,7.571,0,0,1,1.027.184c.6.259,2.4,1.784,1.941,2.424a13,13,0,0,1-1.931.583c-.155-.025-.74-2.165-2.419-1.3-2.853,1.48,2.751,2.81,3.416,3.244a3.232,3.232,0,0,1-.917,5.775,11.174,11.174,0,0,1-1.126.087c-.067.062.05,1.385,0,1.679-2.477.359-1.026-.752-1.572-1.5-.157-.217-.83-.174-1.171-.319a3.481,3.481,0,0,1-2.29-2.835c.625.032,1.527-.546,2.113-.351.356.117.446.877.872,1.186,1.1.8,3.251.339,2.758-1.266-.3-.994-4.153-1.164-5.038-2.98a3.2,3.2,0,0,1,1.662-4.38c1.106-.473,1.333.254,1.174-1.53,2.085-.426,1.261,1.049,1.5,1.3Z" transform="translate(-88.324 0)" fill="#4684f5"/>
      <path id="Path_42904" data-name="Path 42904" d="M999.18,513.008c.583-.172,3.354-.237,3.56.466l.035,8.718c-.125,1.271-3.852,1-4.071.351.222-2.708-.381-6.124-.035-8.743.047-.364.11-.675.513-.792Z" transform="translate(-123.979 -45.595)" fill="#4684f5"/>
      <path id="Path_42905" data-name="Path 42905" d="M979.028,529.948c-.142.466-3.914,1.261-4.111-.735a36.525,36.525,0,0,1,.182-6.129c.319-.506,3.929-.5,3.929.154Z" transform="translate(-106.162 -52.984)" fill="#4684f5"/>
      <path id="Path_42906" data-name="Path 42906" d="M955.132,535.775c-.189.6-3.466.64-3.869.234-.349-.349-.356-5.147-.05-5.459.488-.493,3.919-.391,3.919.192A43.357,43.357,0,0,1,955.132,535.775Z" transform="translate(-88.199 -58.63)" fill="#4684f5"/>
      <path id="Path_42907" data-name="Path 42907" d="M1025.832,572.168l-9.692,3.73c.107-.658-.3-1.811.314-2.2,2.205-.533,6.69-2.863,8.83-2.185.286.09.62.3.551.658Z" transform="translate(-137.237 -89.583)" fill="#4684f5"/>
      <path id="Path_42908" data-name="Path 42908" d="M1016.671,564.217l-6.079,1.679c-.319.142-1.091-.81-1.186-1.029-.13-.3.1-.249.232-.316a32.1,32.1,0,0,1,5.272-1.271C1015.527,563.25,1016.634,563.417,1016.671,564.217Z" transform="translate(-132.124 -83.475)" fill="#4684f5"/>
    </g>
  </g>
</svg>
