<svg xmlns="http://www.w3.org/2000/svg" width="60" height="60" viewBox="0 0 60 60">
  <g id="Group_42765" data-name="Group 42765" transform="translate(12350.895 423.168)">
    <g id="car-EMI" transform="translate(-12350.895 -423.168)">
      <path id="Path_42767" data-name="Path 42767" d="M832.827,396.157c25.31-1.729,41.406,26.7,26.636,47.382a30,30,0,0,1-48.727.091C797.147,424.7,809.572,397.746,832.827,396.157ZM844.992,408.7H825.609V419.88h19.383ZM817.1,427.279V416.1l1.575-.156c-.192.53-.015,1.243.648,1.184a23,23,0,0,0,2.663-1.26c.2-.227.276-.879.057-1.041-1-.309-3.845-2.712-3.211-.143-1.278.215-2.857-.682-3,1.018-.3,3.515.227,7.454.017,11.016.131.844.56.806,1.251.562Zm31.045-.316H837.191c-.116,0-.484.5-.4.7a.969.969,0,0,0,.4.56h11.976c.705-.728.286-1.91.4-2.834.84.269,1.267-.055,1.03-.949-.177-.663-1.308-3.175-2.215-2.358a28.749,28.749,0,0,0-1.316,2.638.714.714,0,0,0,1.08.669v1.574Zm2.6,12.749h3.546a4.453,4.453,0,0,0-.082-1.414c-.05-.112-1.459-1.647-1.651-1.816-2.478-2.173-6.356-1.8-9.14-2.676-1.524-.48-3.489-1.83-5.1-2.466-5.758-2.276-10.159-.585-15.61,1.428a4.555,4.555,0,0,1-3.9-2.794l-2.339.21a8.441,8.441,0,0,1,1.809,7.959c1.55,1.2,1.289.335,2.141-.669,2.314-2.722,7.215-1.422,7.559,2.228l13.923.017a4.507,4.507,0,0,1,5.971-3.438c1.646.581,2.28,1.914,2.872,3.427Zm-4.411-2.432c-4.388-.069-4.3,6.877.615,6.2C850.319,443.009,850.205,437.342,846.333,437.281Zm-23.444.107a3.312,3.312,0,0,0-2.308,2.575,3.16,3.16,0,0,0,5.1,2.895c2.628-2.093.693-6.109-2.8-5.468Z" transform="translate(-805.105 -396.082)" fill="#fbbc05"/>
      <path id="Path_42768" data-name="Path 42768" d="M893.327,566.955c-.591-1.516-1.224-2.853-2.87-3.435a4.5,4.5,0,0,0-5.966,3.445l-13.912-.017c-.341-3.658-5.24-4.961-7.552-2.233-.852,1.006-.591,1.874-2.14.67a8.484,8.484,0,0,0-1.807-7.976l2.337-.211a4.553,4.553,0,0,0,3.9,2.8c5.447-2.018,9.843-3.713,15.6-1.432,1.605.637,3.57,1.99,5.091,2.471,2.781.877,6.656.5,9.132,2.682.192.169,1.6,1.706,1.649,1.82a4.478,4.478,0,0,1,.082,1.417h-3.543Z" transform="translate(-847.7 -523.318)" fill="#fff"/>
      <path id="Path_42769" data-name="Path 42769" d="M921.9,456.08v11.2H902.49v-11.2Zm-16.3.978c-.542.177-.327.765-.573,1.162-.363.582-1.149.116-1.28,1.086a38.783,38.783,0,0,0,.038,4.866c.162.533,1.678.43,1.472,1.685l.232.24,13.173.074c.7-.084.466-.957.86-1.347.3-.293.858-.181,1.039-.54a40.668,40.668,0,0,0,.046-5.256c-.162-.533-1.678-.43-1.472-1.685l-.232-.24-13.3-.046Z" transform="translate(-882 -443.464)" fill="#fff"/>
      <path id="Path_42770" data-name="Path 42770" d="M880.817,592.163c3.494-.643,5.429,3.382,2.8,5.48a3.165,3.165,0,0,1-5.111-2.9,3.318,3.318,0,0,1,2.311-2.581Z" transform="translate(-863.033 -550.867)" fill="#fff"/>
      <path id="Path_42771" data-name="Path 42771" d="M988.979,591.908c3.877.061,3.991,5.739.616,6.209C984.674,598.8,984.585,591.839,988.979,591.908Z" transform="translate(-947.753 -550.72)" fill="#fff"/>
      <path id="Path_42772" data-name="Path 42772" d="M966.914,523.956v-1.577a.718.718,0,0,1-1.084-.67,29.105,29.105,0,0,1,1.318-2.644c.909-.818,2.041,1.7,2.218,2.364.238.9-.188,1.221-1.031.951-.11.926.312,2.108-.4,2.84H955.947a.98.98,0,0,1-.4-.561c-.084-.2.287-.7.4-.7Z" transform="translate(-923.873 -493.07)" fill="#fff"/>
      <path id="Path_42773" data-name="Path 42773" d="M856.966,492.72c-.692.245-1.122.283-1.252-.563.211-3.569-.316-7.516-.017-11.039.143-1.7,1.725-.8,3-1.02-.633-2.574,2.212-.167,3.215.143.219.164.143.816-.057,1.044a22.672,22.672,0,0,1-2.667,1.263c-.664.059-.841-.656-.649-1.187l-1.577.156v11.2Z" transform="translate(-844.972 -461.505)" fill="#fff"/>
      <path id="Path_42774" data-name="Path 42774" d="M910.089,460.72l13.3.046.232.24c-.207,1.255,1.309,1.151,1.472,1.685a40.289,40.289,0,0,1-.046,5.256c-.181.356-.742.247-1.039.54-.4.39-.158,1.263-.86,1.347l-13.173-.074-.232-.24c.207-1.254-1.309-1.151-1.472-1.685a38.775,38.775,0,0,1-.038-4.866c.131-.97.919-.506,1.28-1.086.247-.4.032-.987.573-1.162Zm12.49,1.254-11.706-.032a4.566,4.566,0,0,1-1.5,1.689v3.262a4.548,4.548,0,0,1,1.5,1.689H922.5c.186-.854,1.455-1.311,1.535-1.969a21.06,21.06,0,0,0-.036-2.981c-.044-.131-.852-.711-1.079-.972a4.749,4.749,0,0,1-.339-.685Z" transform="translate(-886.488 -447.127)" fill="#fbbc05"/>
      <path id="Path_42775" data-name="Path 42775" d="M927.055,466.552a4.334,4.334,0,0,0,.339.685c.23.261,1.035.841,1.079.972a21.06,21.06,0,0,1,.036,2.981c-.08.658-1.349,1.113-1.535,1.969H915.349a4.565,4.565,0,0,0-1.5-1.689v-3.262a4.547,4.547,0,0,0,1.5-1.689l11.706.032Zm-5.294,1.029c-.169-.1-.2-.662-.9-.407-.27.1-.192.449-.3.563-.626.641-1.16.538-.862,1.832.261,1.13,1.657.829,1.7.98.114.375-.35.211-.555.232-.407.042-.845-.118-1.107.318-.356.978.479.767.831.989.16.1.173.595.595.6a5.863,5.863,0,0,0,1.495-1.668c.238-1.2-.58-1.908-1.733-1.811-.108-.7,1.341-.055,1.6-.407.447-1.107-.167-.883-.759-1.221Z" transform="translate(-890.964 -451.705)" fill="#fff"/>
      <path id="Path_42776" data-name="Path 42776" d="M943.324,469.789c.592.337,1.2.114.759,1.221-.255.352-1.7-.293-1.6.407,1.153-.1,1.971.607,1.733,1.811a5.891,5.891,0,0,1-1.495,1.668c-.422,0-.436-.5-.595-.6-.35-.221-1.187-.011-.831-.989.264-.436.7-.276,1.107-.318.2-.021.668.143.555-.232-.046-.152-1.442.15-1.7-.98-.3-1.295.234-1.191.862-1.832.112-.114.036-.466.3-.563.7-.255.729.31.9.407Z" transform="translate(-912.527 -453.915)" fill="#fbbc05"/>
    </g>
  </g>
</svg>
