<svg xmlns="http://www.w3.org/2000/svg" width="56" height="60" viewBox="0 0 56 60">
  <g id="Group_42770" data-name="Group 42770" transform="translate(19 -3659)">
    <g id="Compound_Interest" data-name="Compound Interest" transform="translate(-857.688 3235.433)">
      <path id="Path_42866" data-name="Path 42866" d="M849.46,516.15h22.432c2.747,2.941,5.52,6,7.339,9.641-.615,1.345-2.1,2.669-2.292,4.168-.285,2.258,1.923,4.762,2.655,6.849l-6.758,10.622a3.349,3.349,0,0,0,.146,3.511l-.167.191a13.492,13.492,0,0,1-1.68.678c-3.3,1-14.648.95-18.363.576a16.5,16.5,0,0,1-11.048-6.582c-7.383-10.154.078-22.288,7.739-29.652Zm9.8,4.139c-11.37,1.156-15.82,15.561-7.009,23a13.039,13.039,0,1,0,7.009-23Z" transform="translate(0 -69.064)" fill="#ea4335"/>
      <path id="Path_42867" data-name="Path 42867" d="M968.035,423.664c7.7-1.044,13.539,6.467,10,13.557a9.457,9.457,0,0,1-16.571.382c-3.072-5.536.194-13.076,6.569-13.942ZM965.68,426.6c-3.631.654-2.9,6.742,1.279,5.991C970.591,431.942,969.855,425.854,965.68,426.6Zm7.433,1.562-7.966,7.906a1.029,1.029,0,0,0,0,1.572l1.285-.089,7.927-7.945c.539-.918-.2-1.763-1.243-1.442Zm-.576,5.1c-3.291.479-3.391,5.405-.2,5.994C977.121,440.152,977.152,432.6,972.537,433.271Z" transform="translate(-90.243 0)" fill="#ea4335"/>
      <path id="Path_42868" data-name="Path 42868" d="M995.83,502.1c-.79.068-2.5-1.813-3.037-1.392l-8.95,14.211-.063.526c.557,1.735,2.564,4.055,2.969,5.69a.736.736,0,0,1,0,.586L978.1,534.859a1.739,1.739,0,0,1-2.93-1.761l7.323-11.517c.089-.612-2.538-4.654-2.818-5.737a2.232,2.232,0,0,1,0-1.389l10.067-15.624-2.525-2.122,6.656-1.389c.306.191,2.19,6.514,1.954,6.781Z" transform="translate(-101.161 -53.684)" fill="#ea4335"/>
      <path id="Path_42869" data-name="Path 42869" d="M875.313,460.564c-.691-1.643-2.127-2.909-2.773-4.576-1.635-4.217,5.539-.141,6.941-.565.678-.2,1.745-2.42,2.59-3.092a6.14,6.14,0,0,1,6.227-.366c1.1.683,2.451,3.291,3.009,3.459.89.267,1.392-.29,2.208-.353a10.125,10.125,0,0,0,2.059,5.107l-.2.39H875.313Z" transform="translate(-24.936 -20.467)" fill="#ea4335"/>
      <path id="Path_42870" data-name="Path 42870" d="M899.349,497.315a3.111,3.111,0,0,1-1.792.657c-6.5.612-13.952-.474-20.558-.008-2.451-.186-2.844-3.43-.2-3.728l21.338-.005a1.861,1.861,0,0,1,1.206,3.085Z" transform="translate(-26.933 -52.405)" fill="#ea4335"/>
      <path id="Path_42875" data-name="Path 42875" d="M896.063,546.8c12.155-1.24,13.623,17.265,1.7,18.188S884.316,548,896.063,546.8Zm2.033,4.419c-.212-.34.1-1.588-.926-1.737-1.316-.191-.882.981-1.162,1.578-.16.34-.926.534-1.274.882a2.919,2.919,0,0,0,.492,4.416c.921.633,1.575.2,2.368.57,1.036.487.581,2.145-1.154,1.745-.487-.112-1.857-1.585-2.258-.209-.466,1.6,1.549,1.727,1.829,2.211s-.178,1.444.793,1.578c1.415.194,1.036-1.321,1.3-1.737a5.516,5.516,0,0,0,1.243-.814,2.9,2.9,0,0,0-1.227-4.667c-.717-.194-3.05-.091-2.022-1.682.866-1.339,2.744,1.209,3.555.183,1.167-1.478-1.4-2.075-1.549-2.31Z" transform="translate(-36.559 -91.484)" fill="#ea4335"/>
      <path id="Path_42876" data-name="Path 42876" d="M980.128,442.553a1.067,1.067,0,1,1-.152,2.046A1.09,1.09,0,0,1,980.128,442.553Z" transform="translate(-104.151 -14.002)" fill="#ea4335"/>
      <path id="Path_42877" data-name="Path 42877" d="M1005.05,468.146c.942-.952,2.752.774,1.436,1.732C1005.309,470.737,1004.163,469.041,1005.05,468.146Z" transform="translate(-122.965 -32.851)" fill="#ea4335"/>
      <path id="Path_42878" data-name="Path 42878" d="M914.861,558.884c.146.235,2.716.832,1.549,2.31-.811,1.026-2.689-1.52-3.555-.183-1.028,1.591,1.305,1.489,2.022,1.682a2.9,2.9,0,0,1,1.227,4.667,5.514,5.514,0,0,1-1.243.814c-.259.413.12,1.931-1.3,1.737-.968-.133-.523-1.112-.793-1.578s-2.294-.612-1.829-2.211c.4-1.376,1.771.1,2.258.209,1.732.4,2.19-1.258,1.154-1.745-.793-.372-1.447.063-2.368-.57a2.923,2.923,0,0,1-.492-4.416c.348-.348,1.115-.542,1.274-.882.28-.6-.154-1.769,1.162-1.578,1.031.149.714,1.4.926,1.737Z" transform="translate(-53.341 -99.126)" fill="#fff"/>
    </g>
  </g>
</svg>
