<svg xmlns="http://www.w3.org/2000/svg" width="34" height="34" viewBox="0 0 34 34">
  <g id="Group_33459" data-name="Group 33459" transform="translate(0.079 0.08)">
    <rect id="Rectangle_3133" data-name="Rectangle 3133" width="34" height="34" transform="translate(-0.079 -0.08)" fill="rgba(255,255,255,0.01)" opacity="0.01"/>
    <path id="Path_21006" data-name="Path 21006" d="M24.2,27.248H7.477c-3.37,0-5.227-1.857-5.227-5.227V9.477c0-3.37,1.857-5.227,5.227-5.227H24.2c3.37,0,5.227,1.857,5.227,5.227V22.021C29.43,25.392,27.573,27.248,24.2,27.248ZM7.477,6.341c-2.2,0-3.136.938-3.136,3.136V22.021c0,2.2.938,3.136,3.136,3.136H24.2c2.2,0,3.136-.938,3.136-3.136V9.477c0-2.2-.938-3.136-3.136-3.136Zm9.8,10.355,6.846-4.979a1.046,1.046,0,1,0-1.23-1.691L16.043,15a.345.345,0,0,1-.408,0L8.788,10.026a1.046,1.046,0,1,0-1.23,1.691L14.4,16.7a2.436,2.436,0,0,0,2.87,0Z" transform="translate(0.986 1.077)" fill="#14406d"/>
  </g>
</svg>
