<svg xmlns="http://www.w3.org/2000/svg" width="34" height="34" viewBox="0 0 34 34">
  <g id="Group_33461" data-name="Group 33461" transform="translate(0.243 0.243)">
    <rect id="Rectangle_3132" data-name="Rectangle 3132" width="34" height="34" transform="translate(-0.243 -0.243)" fill="#14406d" opacity="0.01"/>
    <path id="Path_21005" data-name="Path 21005" d="M16.939,2.25A13.638,13.638,0,0,0,3.25,15.806c0,7.929,7.348,12.735,12.211,15.916l.828.544a1.183,1.183,0,0,0,1.3,0l.828-.544c4.862-3.181,12.211-7.986,12.211-15.916A13.638,13.638,0,0,0,16.939,2.25Zm.186,27.532-.186.123-.186-.123C12.044,26.7,5.6,22.485,5.6,15.806a11.343,11.343,0,0,1,22.685,0C28.282,22.485,21.833,26.7,17.126,29.782Zm-.186-19.011a5.035,5.035,0,1,0,5.085,5.035A5.066,5.066,0,0,0,16.939,10.771Zm0,7.746a2.711,2.711,0,1,1,2.738-2.711A2.728,2.728,0,0,1,16.939,18.517Z" transform="translate(-0.039 -0.455)" fill="#14406d"/>
  </g>
</svg>
