<svg xmlns="http://www.w3.org/2000/svg" width="34" height="34" viewBox="0 0 34 34">
  <g id="Group_33460" data-name="Group 33460" transform="translate(0.228 0.228)">
    <rect id="Rectangle_3134" data-name="Rectangle 3134" width="34" height="34" transform="translate(-0.228 -0.228)" fill="rgba(255,255,255,0.01)" opacity="0.01"/>
    <path id="Path_21007" data-name="Path 21007" d="M22.2,29.45a7.257,7.257,0,0,1-1.921-.261A25.508,25.508,0,0,1,2.51,11.432,7.184,7.184,0,0,1,3.341,5.7,7.45,7.45,0,0,1,8.205,2.316,3.151,3.151,0,0,1,11.547,3.79l2.18,3.681a3.906,3.906,0,0,1-1.2,5.243l-1.577,1.049a15.24,15.24,0,0,0,6.968,6.986l1.063-1.586a3.907,3.907,0,0,1,5.248-1.181l3.686,2.2a3.144,3.144,0,0,1,1.471,3.313A7.448,7.448,0,0,1,26,28.356,7.228,7.228,0,0,1,22.2,29.45ZM8.845,4.341a1.012,1.012,0,0,0-.205.021A5.36,5.36,0,0,0,5.124,6.8a5.11,5.11,0,0,0-.594,4.078,23.4,23.4,0,0,0,16.3,16.294,5.11,5.11,0,0,0,4.074-.6,5.354,5.354,0,0,0,2.431-3.494,1.048,1.048,0,0,0-.491-1.1l-3.686-2.2a1.815,1.815,0,0,0-2.439.55L19.165,22.65a1.047,1.047,0,0,1-1.272.382,17.312,17.312,0,0,1-9.225-9.246,1.048,1.048,0,0,1,.386-1.273l2.317-1.541a1.812,1.812,0,0,0,.555-2.434L9.746,4.857A1.046,1.046,0,0,0,8.845,4.341Zm11.006,15.4h0Zm4.018-6.686a5.237,5.237,0,0,0-5.23-5.23,1.046,1.046,0,0,0,0,2.092,3.142,3.142,0,0,1,3.138,3.138,1.046,1.046,0,0,0,2.092,0Zm4.184,0a9.425,9.425,0,0,0-9.415-9.415,1.046,1.046,0,1,0,0,2.092,7.331,7.331,0,0,1,7.322,7.322,1.046,1.046,0,0,0,2.092,0Z" transform="translate(1.05 1.063)" fill="#14406d"/>
  </g>
</svg>
