<svg xmlns="http://www.w3.org/2000/svg" width="60" height="57" viewBox="0 0 60 57">
  <g id="EMI" transform="translate(-845.571 -447.483)">
    <path id="Path_42756" data-name="Path 42756" d="M906.884,497.765h-4.016v-2.48h-4.911v2.48c-4.58-.64-4.577,2.177-4.016,5.862-3.262-.1-5.247-.526-4.687,3.608h-4.24v5.411h5.8V509.94l1.786,0a14.747,14.747,0,0,0-.227,4.176,6.924,6.924,0,0,0,.2.758,3.364,3.364,0,0,0-1,.685c-.4.559-.206,1.29-.873,1.371H869.726c-.525.042-1.676-.454-1.676-1.016V482.21h4.016v4.51h30.8V475h-4.911V470.26h7.922a3.832,3.832,0,0,1,1,.788v26.72Zm-29.013-2.48h-5.8V500.7h5.8Zm12.946,0h-5.8V500.7h5.8Zm-12.946,11.95h-5.8v5.411h5.8Z" transform="translate(-15.777 -15.986)" fill="#ea4335"/>
    <path id="Path_42757" data-name="Path 42757" d="M881,448.3a3.127,3.127,0,0,1,.516,1.386c.471,4.24-.367,9.317,0,13.649a2.067,2.067,0,0,1-2.114,1.905c-10.137-.713-21.5.912-31.491,0-1.491-.137-1.986-.62-2.12-2.126a97.231,97.231,0,0,1,0-13.214c.149-1.619.5-1.974,2.12-2.123,9.979-.927,21.36.722,31.488,0a2.912,2.912,0,0,1,1.6.522Zm-22.478,1.95h-9.15v12.522h9.374v-2.236h-6.917v-3.354h6.249v-2.013h-6.249v-2.907h6.7v-2.012Zm6.246,0h-3.793v12.522h2.233v-9.615l2.591,9.63,2.433-.233,2.224-8.727c.42-.605.337.435.337.561v8.384h2.233V450.246h-3.792l-2.123,8.05-2.341-8.05Zm13.169,0h-2.454v12.522h2.454Z" transform="translate(0)" fill="#ea4335"/>
    <path id="Path_42758" data-name="Path 42758" d="M987.706,593.689c-8.241-7.964,4.243-20.665,12.284-12.2C1007.67,589.578,995.67,601.387,987.706,593.689ZM995.482,585a1.322,1.322,0,0,0,1.2-.158c1.374-1.032-1.586-2.451-1.917-2.812-.382-.414-.134-1.4-1.014-1.464-1.133-.11-.805,1.273-1.032,1.535-.08.1-.653.11-.933.292a3.268,3.268,0,0,0-.256,5.34c1.187.817,2.027.414,3.08.716,1.336.385,1.029,2.513-.45,2.82-1.687.352-1.846-1.422-2.674-1.491-1.944-.167-.483,2.2.525,2.844a6.383,6.383,0,0,0,.948.277c.176.218-.286,1.234.677,1.434s.8-.987,1.133-1.354c.167-.185.638-.25.883-.459,1.44-1.228,2.215-2.82,1-4.556-1.339-1.914-3.36-.909-4.237-1.792-1.252-1.264.495-3.354,2.346-2.129.414.274.632.9.722.951Z" transform="translate(-96.884 -91.704)" fill="#ea4335"/>
    <path id="Path_42759" data-name="Path 42759" d="M975.212,565.013l.277,3.3c-.981.054-2.012-.092-2.99.024-1.318.155-2.549.984-3.807,1.106-3.453.334-7.436-.274-10.951-.009-1.1-.212-1.24-4.437.274-4.651l16.029-.057,1.166.286Z" transform="translate(-77.157 -82.03)" fill="#ea4335"/>
    <path id="Path_42760" data-name="Path 42760" d="M957.6,583.5c.176.149-1.628,2.182-1.828,2.528a7.266,7.266,0,0,0-.85,2.168H942.65l-.11-4.249a2.519,2.519,0,0,1,.668-.447H957.6Z" transform="translate(-67.416 -95.163)" fill="#ea4335"/>
    <path id="Path_42761" data-name="Path 42761" d="M948.574,625.911c-.757-.23-.891-4.123.036-4.437,3.134.221,6.977-.42,10.021-.051,1.088.131,1.7,2.436,2.773,3.035l2.01,1.452H948.571Z" transform="translate(-71.178 -121.612)" fill="#ea4335"/>
    <path id="Path_42762" data-name="Path 42762" d="M952.279,607.222c-.683-.209-1.139-4.29.432-4.484,2.49-.307,5.6.253,8.16.012a13.286,13.286,0,0,0,.444,4.472h-9.04Z" transform="translate(-73.826 -108.514)" fill="#ea4335"/>
    <rect id="Rectangle_21732" data-name="Rectangle 21732" width="5.802" height="5.367" transform="translate(856.489 479.33)" fill="#fff"/>
    <rect id="Rectangle_21733" data-name="Rectangle 21733" width="5.802" height="5.367" transform="translate(869.669 479.33)" fill="#fff"/>
    <rect id="Rectangle_21734" data-name="Rectangle 21734" width="5.802" height="5.367" transform="translate(856.489 491.329)" fill="#fff"/>
    <path id="Path_42763" data-name="Path 42763" d="M901.035,456.75l2.341,8.05,2.123-8.05h3.793v12.522h-2.233v-8.384c0-.128.083-1.166-.337-.561l-2.224,8.727-2.433.233-2.591-9.63v9.615H897.24V456.75h3.792Z" transform="translate(-35.944 -6.504)" fill="#fff"/>
    <path id="Path_42764" data-name="Path 42764" d="M867.48,456.75v2.013h-6.7v2.907h6.249v2.013h-6.249v3.354H867.7v2.236H858.33V456.75Z" transform="translate(-8.955 -6.504)" fill="#fff"/>
    <rect id="Rectangle_21735" data-name="Rectangle 21735" width="2.454" height="12.522" transform="translate(876 450.246)" fill="#fff"/>
    <path id="Path_42765" data-name="Path 42765" d="M1007.861,589.4c-.089-.051-.307-.677-.721-.951-1.852-1.225-3.6.865-2.346,2.129.877.883,2.9-.122,4.237,1.792,1.213,1.735.438,3.327-1,4.556-.245.209-.716.274-.883.459-.331.367-.185,1.55-1.133,1.354s-.5-1.219-.677-1.434a6.371,6.371,0,0,1-.948-.277c-1.008-.644-2.466-3.011-.525-2.844.829.072.987,1.846,2.674,1.491,1.482-.31,1.786-2.439.45-2.821-1.052-.3-1.89.1-3.08-.716a3.268,3.268,0,0,1,.256-5.34c.28-.182.853-.2.933-.292.227-.262-.1-1.643,1.032-1.536.88.069.635,1.049,1.014,1.464.331.361,3.292,1.78,1.917,2.812a1.322,1.322,0,0,1-1.2.158Z" transform="translate(-109.263 -96.103)" fill="#fff"/>
  </g>
</svg>
