<svg xmlns="http://www.w3.org/2000/svg" width="24" height="24" viewBox="0 0 24 24">
  <g id="Group_33497" data-name="Group 33497" transform="translate(0.164 0.164)">
    <rect id="Rectangle_3133" data-name="Rectangle 3133" width="24" height="24" transform="translate(-0.164 -0.164)" fill="rgba(255,255,255,0.04)" opacity="0.01"/>
    <path id="Path_21006" data-name="Path 21006" d="M17.174,19.358H5.8c-2.291,0-3.553-1.22-3.553-3.434V7.684C2.25,5.47,3.512,4.25,5.8,4.25H17.174c2.291,0,3.553,1.22,3.553,3.434v8.241C20.728,18.138,19.466,19.358,17.174,19.358ZM5.8,5.623c-1.494,0-2.132.616-2.132,2.06v8.241c0,1.444.638,2.06,2.132,2.06H17.174c1.494,0,2.132-.616,2.132-2.06V7.684c0-1.444-.638-2.06-2.132-2.06Zm6.661,6.8,4.654-3.271a.672.672,0,0,0,.156-.96.726.726,0,0,0-.993-.151l-4.655,3.271a.241.241,0,0,1-.278,0L6.7,8.044A.727.727,0,0,0,5.7,8.2a.672.672,0,0,0,.156.96l4.654,3.271a1.7,1.7,0,0,0,1.951,0Z" transform="translate(0.347 0.032)" fill="#fff"/>
  </g>
</svg>
