<svg xmlns="http://www.w3.org/2000/svg" width="24" height="24" viewBox="0 0 24 24">
  <g id="Group_33498" data-name="Group 33498" transform="translate(0.164 0.164)">
    <rect id="Rectangle_3133" data-name="Rectangle 3133" width="24" height="24" transform="translate(-0.164 -0.164)" fill="rgba(255,255,255,0.02)" opacity="0.01"/>
    <path id="Path_21020" data-name="Path 21020" d="M11.759,10.283A4.07,4.07,0,0,1,7.646,6.266a4.114,4.114,0,0,1,8.226,0A4.07,4.07,0,0,1,11.759,10.283Zm0-6.615A2.633,2.633,0,0,0,9.1,6.266a2.662,2.662,0,0,0,5.323,0A2.633,2.633,0,0,0,11.759,3.668Zm3.859,17.011H7.882c-2.342,0-3.632-1.252-3.632-3.526A5.17,5.17,0,0,1,9.815,11.7h3.871a5.17,5.17,0,0,1,5.565,5.452C19.25,19.426,17.96,20.679,15.618,20.679Zm-5.8-7.56A3.775,3.775,0,0,0,5.7,17.153c0,1.478.652,2.108,2.18,2.108h7.736c1.528,0,2.18-.63,2.18-2.108a3.775,3.775,0,0,0-4.113-4.034Z" transform="translate(-0.129 0.157)" fill="#fff"/>
  </g>
</svg>
