<svg xmlns="http://www.w3.org/2000/svg" width="60" height="48" viewBox="0 0 60 48">
  <g id="Group_42756" data-name="Group 42756" transform="translate(-854.733 -476.62)">
    <path id="Path_42643" data-name="Path 42643" d="M919.3,514.5h-6.484c-.718,0-1.708,1.825-1.8,2.6-.662,5.531.121,13.524.294,19.221.052,1.73-.074,3.467,0,5.2a3.07,3.07,0,0,1-.983.445H899.706c.541-1.284,1.689-1.943,2.429-3.213,5.053-8.648-6.271-16.711-13.469-10.245v-2.2c.9-.066,2.65.375,2.977-.74.247-.832.313-4.475-.909-4.475H884.25a23.313,23.313,0,0,1,8.854-15.221c1.023-.773,3.353-2.429,4.549-2.617a64.734,64.734,0,0,1,9.925-.022c3.849.467,10.5,7.548,11.725,11.268Zm-11.592,0h-9.8c-.379,0-.567.795-.162,1.262.526.611,2.62.342,3.062,1.483-1.3.147-3.912-.673-3.18,1.384.916.905,2.252.383,3.327.541.4.059.445-.158.416.42-.092,1.763-1.958,1.6-3.183,1.785-.372.055-.49-.177-.412.4l6.061,8.254c.287.125,1.711-.545,1.634-1.06l-4.4-6.094.044-.375a3.5,3.5,0,0,0,2.451-3.327h4.14c.821-3.838-4.291-.32-4.968-3.021h4.968V514.5Z" transform="translate(-18.813 -17.647)" fill="#4684f5"/>
    <path id="Path_42644" data-name="Path 42644" d="M960.791,563.412l-.081-25.356.574-.526,19.755.107a3.42,3.42,0,0,1,.677,2.076,162.038,162.038,0,0,1,0,21.72c-.144,1.689-.331,2.179-2.068,2.337a132.215,132.215,0,0,1-17.414,0,2.691,2.691,0,0,1-1.443-.35Zm2.348-23.762c-2.444.147-2.127,6.083-.221,6.676l15.346.136c2.87-.074,2.753-6.113.692-6.757Zm-.206,10.647,3.055-.121.136-2.642-3.194-.258V550.3Zm7.452-3.025-3.055.122-.136,2.642,3.194.258v-3.025Zm4.14,0h-3.04V550.3h3.04Zm1.1,3.025,3.055-.121.136-2.642-3.194-.258V550.3Zm-9.384,3.57-.261-2.9-2.933.136-.121,2.764h3.316Zm4.14,0-.261-2.9-2.933.136-.122,2.764h3.316Zm4.14,0c-.1-.677.261-2.539-.261-2.9l-2.778-.121v3.025Zm1.1,0,3.055-.121.136-2.642-2.933-.136-.261,2.9Zm-9.421.861-3.014-.2-.261,2.9h3.316Zm4.177,2.712-.261-2.9-2.933.136.136,2.642,3.055.121Zm4.14,0-.261-2.9-2.657.136-.121,2.764h3.04Zm1.1,0,3.055-.121.136-2.642-2.933-.136-.261,2.9Zm-9.384.821h-3.316v2.749h3.316Zm4.14,0h-3.316v2.749h3.316Zm4.14,0-3.051.129.011,2.62h3.04Zm1.1,2.749,3.055-.121c1.108-3.069-.622-2.716-3.055-2.628Z" transform="translate(-67.347 -39.436)" fill="#4684f5"/>
    <path id="Path_42645" data-name="Path 42645" d="M928.285,477.47l-2.944,4.346-10.179.213L912,477.2c1.612-.247,2.127.994,3.713,1.111,2.256.166,1.66-.482,2.933-1.225,2.079-1.214,2.252.718,3.437.938,2.031.372,3-1.4,4.133-1.4l2.068.857Z" transform="translate(-36.369 0)" fill="#4684f5"/>
    <path id="Path_42646" data-name="Path 42646" d="M905.179,570.787a7.529,7.529,0,0,1-2.2,12.314c-7.106,2.874-13.554-5.608-8.615-11.592A7.775,7.775,0,0,1,905.179,570.787Zm-6.322-.581c-6.337,1.189-6.528,11,.007,11.946C908.951,583.619,908.049,568.479,898.856,570.205Z" transform="translate(-24.063 -59.283)" fill="#4684f5"/>
    <path id="Path_42647" data-name="Path 42647" d="M869.394,569.072c-.427.677-11.158.143-12.788.305-1.259-.074-1.284-2.491-.585-3.04.994-.78,10.739.077,12.722-.25,1.156.214.611,2.054.651,2.981Z" transform="translate(-0.523 -57.167)" fill="#4684f5"/>
    <path id="Path_42649" data-name="Path 42649" d="M868.356,591.718H855.52c-.537,0-1.814-3.054.813-3.312,3.448-.339,7.5.25,11.018.055l.412.412Z" transform="translate(0 -71.522)" fill="#4684f5"/>
    <path id="Path_42650" data-name="Path 42650" d="M877.766,555.05c.924.258.975,2.731.077,3.113-1.237.523-2.238-.081-3.375-.1-3.117-.055-6.241.1-9.359-.026l-.331-.221a1.472,1.472,0,0,1-.132-.692c-.085-.655-.122-1.667.427-2.072h12.7Z" transform="translate(-6.234 -50.163)" fill="#4684f5"/>
    <path id="Path_42651" data-name="Path 42651" d="M859.87,600.58h11.868c.372,0,2.418,3.021,1.1,3.021H859.87l-.368-.456a4.825,4.825,0,0,1-.063-1.056c0-.563-.092-1.163.431-1.509Z" transform="translate(-2.97 -79.283)" fill="#4684f5"/>
    <path id="Path_42652" data-name="Path 42652" d="M873.426,577.44l-.961,3.025c-.2.3-.512.25-.817.287a54.678,54.678,0,0,1-8.446-.14c-1.524-.5-.743-3.172-.125-3.172Z" transform="translate(-4.794 -64.485)" fill="#4684f5"/>
    <path id="Path_42653" data-name="Path 42653" d="M929.737,493.916a1.487,1.487,0,0,1-.905,2.4,66.248,66.248,0,0,1-9.362-.007c-1.958-.32-2.223-2.5-.022-2.731a61.722,61.722,0,0,1,8.847-.011c.431.037,1.13.044,1.439.35Z" transform="translate(-40.098 -10.613)" fill="#4684f5"/>
    <path id="Path_42674" data-name="Path 42674" d="M981.3,549.418a2.69,2.69,0,0,1-1.443.35c-4.585.383-9.712-.3-14.356-.018-1.825-.339-2.072-5.056.559-5.469a107.385,107.385,0,0,1,14.279.044C982.311,544.759,981.755,547.935,981.3,549.418Zm-15.49-4.291c-.8.261-.438,3.065-.331,3.824l.331.217,14.452-.1c.824-.4.817-3.713.1-3.945H965.806Z" transform="translate(-69.492 -43.167)" fill="#4684f5"/>
    <rect id="Rectangle_21727" data-name="Rectangle 21727" width="1.66" height="1.376" transform="translate(900.633 508.948)" fill="#4684f5"/>
    <rect id="Rectangle_21728" data-name="Rectangle 21728" width="1.66" height="1.376" transform="translate(909.11 508.948)" fill="#4684f5"/>
    <rect id="Rectangle_21729" data-name="Rectangle 21729" width="1.66" height="1.376" transform="translate(900.633 512.447)" fill="#4684f5"/>
    <path id="Path_42675" data-name="Path 42675" d="M970.182,575.94v1.376H968.25l.258-1.251Z" transform="translate(-72.007 -63.493)" fill="#4684f5"/>
    <rect id="Rectangle_21730" data-name="Rectangle 21730" width="1.936" height="1.376" transform="translate(896.243 508.948)" fill="#4684f5"/>
    <path id="Path_42676" data-name="Path 42676" d="M1004.682,575.94v1.376h-1.932l.258-1.251Z" transform="translate(-93.916 -63.493)" fill="#4684f5"/>
    <path id="Path_42677" data-name="Path 42677" d="M981.906,585.65V587.3l-1.4-.122-.258-1.527Z" transform="translate(-79.617 -69.848)" fill="#4684f5"/>
    <path id="Path_42678" data-name="Path 42678" d="M1004.884,585.65l-.258,1.527-1.369.088-.188-1.347Z" transform="translate(-94.118 -69.848)" fill="#4684f5"/>
    <path id="Path_42679" data-name="Path 42679" d="M970.149,585.587v1.652l-1.814-.258C967.786,585.458,968.982,585.495,970.149,585.587Z" transform="translate(-71.973 -69.785)" fill="#4684f5"/>
    <path id="Path_42680" data-name="Path 42680" d="M993.426,577.228H991.49l.121-1.115c1.089-.673,2.065-.239,1.811,1.115Z" transform="translate(-86.8 -63.405)" fill="#4684f5"/>
    <rect id="Rectangle_21731" data-name="Rectangle 21731" width="1.936" height="1.376" transform="translate(904.694 508.948)" fill="#4684f5"/>
    <path id="Path_42681" data-name="Path 42681" d="M981.906,595.35V597l-1.4-.121-.258-1.527Z" transform="translate(-79.617 -75.978)" fill="#4684f5"/>
    <path id="Path_42682" data-name="Path 42682" d="M991.84,585.6c1.373-.449,2,.949,1.218,1.49C991.741,588,990.633,585.993,991.84,585.6Z" transform="translate(-86.694 -69.761)" fill="#4684f5"/>
    <path id="Path_42683" data-name="Path 42683" d="M970.149,595.287v1.652l-1.814-.258C967.786,595.158,968.982,595.195,970.149,595.287Z" transform="translate(-71.973 -75.915)" fill="#4684f5"/>
    <path id="Path_42684" data-name="Path 42684" d="M1004.719,595.35l-.258,1.527c-1.421.46-2.079-.173-1.358-1.487Z" transform="translate(-93.953 -75.978)" fill="#4684f5"/>
    <path id="Path_42685" data-name="Path 42685" d="M991.84,595.3c1.373-.449,2,.949,1.218,1.49C991.741,597.7,990.633,595.694,991.84,595.3Z" transform="translate(-86.694 -75.891)" fill="#4684f5"/>
    <path id="Path_42686" data-name="Path 42686" d="M900.937,584.1a6.475,6.475,0,0,1-1.715-3.095c-.81-6.057,7.217-8.2,9.6-2.962,2.293,5.042-3.86,9.325-7.883,6.057Zm3.5-5.954c.7-.022,1.472.21,1.925-.416,0-.7-3.43-.324-4.133-.412l.828,1.093-.828.828,1.38.14-1.38,1.093c.637.585,2.856,4.5,2.9,2.337l-1.454-2.061c.357-.291.754-1.2,1.041-1.362.508-.294,1.443.051,1.649-.688l-1.928-.548Z" transform="translate(-28.201 -63.166)" fill="#4684f5"/>
    <path id="Path_42689" data-name="Path 42689" d="M983.076,551.148H969l.258-2.628,13.366-.081.416.412Z" transform="translate(-72.587 -45.928)" fill="#4684f5"/>
  </g>
</svg>
