<svg xmlns="http://www.w3.org/2000/svg" width="60" height="60" viewBox="0 0 60 60">
  <g id="FD" transform="translate(-781.94 -381.403)">
    <path id="Path_42690" data-name="Path 42690" d="M849.394,577.95l3.37,1.443c3.518,1.271,9.264,1.123,12.857.069,3.656-1.073,5.448-5.012,9.693-4.542,1.391.154,2.7,1.071,2.338,2.637-.117.507-.6.663-.76.965-.322.624.359.32.658.784,1.1,1.7-2.429,4.145-3.555,4.956-1.945,1.4-6.112,4.38-8.316,4.768-3.927.692-8.69,1.47-12.64,1.87-3.77.381-4.852-.1-8.193-1.541-4.514-1.949-9.551-5.1-14.021-6.682-1.086-.383-2.895-.324-3.727-.726-.545-.264-.635-.784-.685-1.331-.347-3.749.276-8.025,0-11.831,0-1.111.827-1.231,1.669-1.495,5.12-1.6,11.813-2.244,16.974-.63,2.807.878,5.243,2.8,8.163,3.194,2.77.378,5.448.322,8.268.925,3.175.68,7.881,2.132,4.853,6.228-1.615,2.186-3.516,1.215-5.673,1.083-2.615-.16-5.759-.412-8.322-.439a20.014,20.014,0,0,0-2.948.3Z" transform="translate(-35.82 -149.622)" fill="#34a853"/>
    <path id="Path_42691" data-name="Path 42691" d="M895.841,453.5a16.463,16.463,0,0,1,.514-15.518c1.225-2.086,4.764-5.946,7.249-6.158,4.461.316,9.458-.4,13.854,0,2.4.22,5.723,3.772,6.936,5.752a16.42,16.42,0,0,1-6.717,23.45c-.809.26-2.286-.385-3.119-.5-2.716-.379-5.819-.181-8.422-1.094-1.477-.518-3.009-1.618-4.581-2.2-1.025-.378-3.4-.742-4.066-1.123a11.84,11.84,0,0,1-1.647-2.608Zm13.9-5.239v5.837a.391.391,0,0,1-.345.2,14.954,14.954,0,0,1-1.682-1.206c-.522-.713-.5-2.712-1.57-3.042-2.071-.636-2.8,1.067-2.242,2.816.79,2.477,3.379,3.777,5.777,4.17.322.447-.48,2.8.967,2.581,1.1-.169.559-1.932.684-2.714a5.934,5.934,0,0,0,6.07-5.995c-.023-.468-.279-.324-.306-.445-.06-.289.129-.574.106-.823a7.65,7.65,0,0,0-.971-1.888c-1.121-1.412-3.19-1.965-4.9-2.238v-5.476c2.462.171,1.626,4.016,4.224,3.429,1.67-.378,1.179-2.381.509-3.475a5.67,5.67,0,0,0-4.725-2.554c-.1-.934.441-2.793-1.057-2.558-.905.143-.406,1.876-.545,2.556-2.076.491-4.057.665-4.995,2.862a5.728,5.728,0,0,0,.537,5.719c1.079,1.327,2.934,1.659,4.467,2.238Z" transform="translate(-90.804 -40.853)" fill="#34a853"/>
    <path id="Path_42692" data-name="Path 42692" d="M943.855,381.9c.759.8.474,1.441-.1,2.182-.953,1.233-2.689,2.77-3.82,3.964-.805.849-.765,1.449-2.159,1.589a60.966,60.966,0,0,1-8.514,0,2.169,2.169,0,0,1-.726-.139l-5.5-5.388c-.63-.9-.823-1.986.279-2.585,6.47-.254,13.008-.033,19.505-.114A1.962,1.962,0,0,1,943.855,381.9Z" transform="translate(-113.66)" fill="#34a853"/>
    <path id="Path_42693" data-name="Path 42693" d="M782.768,560.018a32.986,32.986,0,0,1,5.02-.035,1.029,1.029,0,0,1,.905.536l.035,18.717a1.287,1.287,0,0,1-1.007,1.011,27.851,27.851,0,0,1-4.831.054,1.1,1.1,0,0,1-.915-.815l-.035-18.421a1.109,1.109,0,0,1,.826-1.048Z" transform="translate(0 -144.922)" fill="#34a853"/>
    <path id="Path_42694" data-name="Path 42694" d="M949.857,461.531c-1.531-.578-3.386-.909-4.467-2.238a5.728,5.728,0,0,1-.537-5.719c.938-2.2,2.918-2.371,4.995-2.862.139-.68-.36-2.416.545-2.556,1.5-.235.957,1.624,1.057,2.558a5.675,5.675,0,0,1,4.725,2.554c.67,1.094,1.162,3.1-.509,3.475-2.6.588-1.763-3.257-4.224-3.429v5.476c1.709.274,3.777.824,4.9,2.238a7.584,7.584,0,0,1,.971,1.888c.023.248-.166.534-.106.823.025.121.283-.023.306.445.166,3.458-2.795,5.919-6.07,5.995-.123.782.42,2.545-.684,2.714-1.447.223-.645-2.134-.967-2.581-2.4-.395-4.987-1.7-5.777-4.17-.557-1.751.171-3.452,2.242-2.816,1.075.329,1.048,2.329,1.57,3.042a15.462,15.462,0,0,0,1.682,1.206.391.391,0,0,0,.345-.2v-5.837Zm0-8.216a2.492,2.492,0,0,0-2.3,3.24,3.045,3.045,0,0,0,2.3,1.516Zm1.585,8.791v5.405c0,.576,1.755-.472,1.945-.649C955.3,465.075,953.913,462.268,951.442,462.107Z" transform="translate(-130.851 -54.164)" fill="#e4e4e4"/>
    <path id="Path_42695" data-name="Path 42695" d="M983.33,520.67c2.471.162,3.852,2.968,1.945,4.756-.191.179-1.945,1.227-1.945.649Z" transform="translate(-162.741 -112.831)" fill="#34a853"/>
    <path id="Path_42696" data-name="Path 42696" d="M965.158,475.03v4.756a3.05,3.05,0,0,1-2.3-1.516A2.493,2.493,0,0,1,965.158,475.03Z" transform="translate(-146.139 -75.851)" fill="#34a853"/>
  </g>
</svg>
