<svg id="Rating" xmlns="http://www.w3.org/2000/svg" width="60" height="60" viewBox="0 0 60 60">
  <path id="Path_42915" data-name="Path 42915" d="M880.432,449.569a4.4,4.4,0,0,1,3.193,1.219l16.841,15.127c3.23-2.657,5.662-8.459,10.181-3.91l12.972,11.717c.791.142,3.153-4.6,5.471-4.508,1.538.057,2.178,1.1,2.67,2.374,1.9,4.889,2.844,10.522,4.717,15.465-.134,2.428-1.243,3.218-3.595,3.079-3.34-.192-8.513-1.432-11.943-2.134-2.5-.51-6.556-.561-5.719-4.241a5.585,5.585,0,0,1,.958-1.56c.573-.76,2.285-2.208,2.647-2.907.154-.294.121-.419-.127-.638l-10.979-9.938c-2.948,1.712-5.323,7.733-9.367,4.626l-20.088-17.927a3.629,3.629,0,0,1,2.168-5.842Z" transform="translate(-876.954 -449.544)" fill="#ea4335"/>
  <path id="Path_42916" data-name="Path 42916" d="M877.422,509.08a48.1,48.1,0,0,1,7.283-.047,2.2,2.2,0,0,1,1.391,1.388l.017,36.84a1.928,1.928,0,0,1-1.675,1.614,40.789,40.789,0,0,1-6.77-.041,2.481,2.481,0,0,1-1.685-1.854l-.024-35.566c.024-1.01.355-2.09,1.459-2.333Z" transform="translate(-875.96 -488.995)" fill="#ea4335"/>
  <path id="Path_42917" data-name="Path 42917" d="M926.678,539.748a63.669,63.669,0,0,1,7.793-.047,1.491,1.491,0,0,1,1.091,1.185l.061,26.439a1.775,1.775,0,0,1-1.509,1.776,33.633,33.633,0,0,1-6.706.088,1.946,1.946,0,0,1-1.867-1.418l-.061-26.189A2.237,2.237,0,0,1,926.678,539.748Z" transform="translate(-908.913 -509.32)" fill="#ea4335"/>
  <path id="Path_42918" data-name="Path 42918" d="M976.189,577.07a42.741,42.741,0,0,1,7.023-.037c1.216.189,1.57,1.013,1.671,2.117a90.164,90.164,0,0,1-.007,12.885,1.767,1.767,0,0,1-.945,1.58c-1,.513-7.483.513-8.415-.088a1.96,1.96,0,0,1-.787-1.739c-.382-4.177.317-8.9,0-13.142-.02-.716.8-1.425,1.459-1.574Z" transform="translate(-941.612 -534.027)" fill="#ea4335"/>
  <path id="Path_42919" data-name="Path 42919" d="M1025.415,586.774a45.419,45.419,0,0,1,7.273-.041c1.216.189,1.57,1.013,1.672,2.117a63,63,0,0,1-.027,9.583,2.525,2.525,0,0,1-1.317,1.715,35.358,35.358,0,0,1-7.138.176,2.447,2.447,0,0,1-1.53-1c.057-3.41-.527-7.648-.135-10.974.094-.807.344-1.384,1.2-1.58Z" transform="translate(-974.53 -540.452)" fill="#ea4335"/>
</svg>
