<svg xmlns="http://www.w3.org/2000/svg" width="60" height="52" viewBox="0 0 60 52">
  <g id="Group_42771" data-name="Group 42771" transform="translate(-850.045 -832.356)">
    <path id="Path_42284" data-name="Path 42284" d="M903.431,370.765a10.719,10.719,0,0,1,1.32,0c.4.049.826.263,1.32.3.034,0,.068,0,.1,0,.241.3.936.283,1.218.406a14.514,14.514,0,0,1,2.638,1.826c.111.107.316.3.406.406a15.141,15.141,0,0,1,1.826,2.739,12.178,12.178,0,0,1,.608,2.638,9.939,9.939,0,0,1,.1,1.116,11.709,11.709,0,0,1-.3,2.231,10.083,10.083,0,0,1-3.551,5.376c-3.716-.023-7.443-.024-11.16,0a11.712,11.712,0,0,1-2.691-3.143c-.226-.394-.448-1.126-.657-1.423-.028-.041-.043-.088-.1-.1a27.357,27.357,0,0,1-.406-2.841,8.912,8.912,0,0,1,0-1.218c0-.026.088-.111.1-.2.045-.309.13-.954.2-1.218a11.62,11.62,0,0,1,.507-1.318,10.763,10.763,0,0,1,1.725-2.638c.033-.035.068-.068.1-.1a13.722,13.722,0,0,1,1.42-1.218c.041-.028.068-.08.1-.1.194-.13.891-.5,1.116-.608a11.1,11.1,0,0,1,2.638-.812,9.423,9.423,0,0,1,1.42-.1Zm1.028,4.449c-.233-.358.462-1.841-.8-2-1.5-.184-.845,1.68-1.051,2-.024.037-.578.225-.79.377a2.993,2.993,0,0,0-.112,4.864c.94.74,1.484.4,2.311.733a1.155,1.155,0,0,1-.832,2.149c-1.08-.186-.48-1.818-1.576-1.981-1.311-.2-1.172,1.294-.817,2.142a2.427,2.427,0,0,0,1.817,1.581c.164.186-.363,1.809.673,2.016,1.62.322.971-1.7,1.177-2.013.024-.037.578-.225.79-.377a3.029,3.029,0,0,0,.112-4.864c-.925-.71-1.535-.356-2.325-.718a1.161,1.161,0,0,1,.756-2.174c1.218.171.522,2.3,2.017,2.031,1.566-.279.344-2.7-.5-3.342-.23-.175-.821-.382-.847-.421Z" transform="translate(-22.938 461.614)" fill="#ea4335"/>
    <path id="Path_42285" data-name="Path 42285" d="M781.775,462.233c.058.014.073.06.1.1a16.566,16.566,0,0,0-8.656,29.908c.627.466,1.412.854,2.008,1.34a8.539,8.539,0,0,1,2.968,5.452c.211,1.169-.083,2.113,1.143,2.864a15.466,15.466,0,0,1-2.665-.023,1.779,1.779,0,0,1-1.088-1.092c-.1-.354-.127-.994-.2-1.42s-.091-.732-.2-1.218a7.134,7.134,0,0,0-1.116-2.739,5.951,5.951,0,0,0-.71-.913c-.153-.167-.241-.253-.406-.406a9.669,9.669,0,0,0-.913-.71c-.871-.656-1.794-1.236-2.638-1.928-.015-.077-.024-.087-.1-.1a17.636,17.636,0,0,1-3.246-3.854c-.19-.312-.572-.938-.71-1.218-.032-.066-.07-.137-.1-.2-.149-.312-.493-1.1-.608-1.42a21.185,21.185,0,0,1-.71-2.536c-.073-.385-.164-1.049-.2-1.42-.024-.228.016-.478,0-.71a12.639,12.639,0,0,1,0-1.826c.024-.522.035-.9.1-1.42.05-.394.037-1.007.1-1.318a23.184,23.184,0,0,1,.913-2.739,19.232,19.232,0,0,1,1.218-2.536,17.227,17.227,0,0,1,7.71-6.594c.3-.13.711-.3,1.015-.406.348-.122.885-.318,1.218-.406.354-.092,1.062-.244,1.42-.3a27.432,27.432,0,0,1,4.363-.2Z" transform="translate(90.793 382.412)" fill="#ea4335"/>
    <path id="Path_42286" data-name="Path 42286" d="M729.373,579.669c.744-.069,1.578.05,2.333,0a12.639,12.639,0,0,0,0,1.826c-.253.018-.516-.029-.768,0a.591.591,0,0,0-.245.106c-.42.027-.921-.054-1.32,0a.786.786,0,0,0-.71.608,4.854,4.854,0,0,0-.1,1.42c-.018.416.053.928,0,1.318-.065.478-.478.63-.507.71a.933.933,0,0,1-1.324-.858c-.148-1.618-.224-3.779,1.324-4.721a3.453,3.453,0,0,1,1.32-.406Z" transform="translate(123.387 278.022)" fill="#ea4335"/>
    <path id="Path_42422" data-name="Path 42422" d="M822.158,425.56c.033.277-.008.619,0,.911.01.4-.008.811,0,1.215.009.47-.014.946,0,1.416a6.11,6.11,0,0,0,.1,1.315,2.175,2.175,0,0,0,.389.943c.079.1.189.058.2.069a5.528,5.528,0,0,0,1.767,1.061c.267.135.638.5.881.558.03.007.065,0,.1,0a4.1,4.1,0,0,0,1.079.809c.22.15.355.45.686.505a3.181,3.181,0,0,0,.686.708c.187.192.413.415.588.607.215.235.486.558.686.81.161.2.339.4.49.607.237.323.407.889.784,1.114,0,.034-.007.07,0,.1.06.273,1.149,2.278,1.373,2.732.023.047,0,.188.055.293a1.547,1.547,0,0,0,1.122.92,6.161,6.161,0,0,0,1.276.1c.914.061,2.042-.122,2.452,1.012a2.179,2.179,0,0,1,.1.551c.169,2.066-.126,4.38-.012,6.472a1.805,1.805,0,0,1-1.168,1.374,12.564,12.564,0,0,1-1.373,0,4.932,4.932,0,0,0-1.276.1,1.531,1.531,0,0,0-1,.738c-.073.132-.043.315-.073.374-.457.905-.859,1.859-1.373,2.732-.038.064-.059.139-.1.2-.189.305-.47.684-.686,1.012-.185.28-.536.484-.588.809-.288.089-.354.45-.49.607-.189.216-.572.607-.784.809-.08.076-.251.177-.393.3-.289.259-.672.569-.981.809-.257.2-.519.424-.784.607-.138.095-.309.251-.393.3a13.211,13.211,0,0,0-2.648,1.619c-.038.036-.2.022-.339.2a2.183,2.183,0,0,0-.249.607,4.3,4.3,0,0,0-.295,1.315c-.065.435-.138.88-.2,1.315-.055.408-.043.918-.1,1.315-.131.949-.178,2.361-1.373,2.53-1.779-1.068-.626-3.785-1.813-5.365-.955-1.272-2.327-1.136-3.738-1.115a.462.462,0,0,0-.237.105c-.234,0-.485,0-.686,0-.392,0-.786,0-1.177,0-.426,0-.931-.011-1.373,0s-.854.011-1.276,0c-.46-.012-.918-.013-1.372,0-.388.012-.788.012-1.177,0-.521-.016-.845-.016-1.372,0-.389.012-.787.008-1.177,0-.443-.008-.923-.009-1.372,0-.39.008-.787.008-1.177,0a9.9,9.9,0,0,0-1.373,0,3.65,3.65,0,0,0-1.276.2,1.745,1.745,0,0,0-1.276,1.012,1.689,1.689,0,0,0-.1.2,2.949,2.949,0,0,0-.295,1.114c-.093.489-.126.85-.2,1.315-.064.426-.093,1.046-.2,1.416a1.629,1.629,0,0,1-1.177,1.114c-1.185-.749-.9-1.691-1.105-2.857a8.579,8.579,0,0,0-2.869-5.438c-.576-.485-1.335-.872-1.941-1.337a16.8,16.8,0,0,1-6.2-16.883c1.433-7.07,7.305-12.681,14.317-13.036.2.3.668,1.113.885,1.506a11.631,11.631,0,0,0,2.6,3.135c-1.09.008-2.439-.109-3.486-.005-1.369.137-1.24,1.665-.284,1.82l18.143.011a.916.916,0,0,0,.464-1.7c-.534-.269-3.245-.119-4.047-.124a10.091,10.091,0,0,0,3.433-5.362c.312,0,.14-.288.382-.461,1.7-1.209,3.66-2.646,5.405-3.788Zm2.521,15.4a1.087,1.087,0,0,0,.447,2.081A1.07,1.07,0,1,0,824.68,440.963Z" transform="translate(73.019 414.276)" fill="#ea4335"/>
    <path id="Path_42423" data-name="Path 42423" d="M1036.639,418.35a6.654,6.654,0,0,1,.507.507,1.99,1.99,0,0,1,.1.406c-1.8,1.145-3.388,2.623-5.143,3.835a1.623,1.623,0,0,1-.844.424,11.827,11.827,0,0,0,.3-2.231,18.853,18.853,0,0,0,2.333-1.725c.351-.259.718-.6,1.015-.812.087-.062.383-.293.406-.3a1.947,1.947,0,0,1,1.32-.1Z" transform="translate(-141.995 420.556)" fill="#ea4335"/>
    <path id="Path_42557" data-name="Path 42557" d="M1023.017,713.465c-.763.1-1.824-.028-2.638,0a1.792,1.792,0,0,1-1.116-1.116c-.194-.776-.219-1.851-.406-2.739a5.664,5.664,0,0,0-.069-.691,3.137,3.137,0,0,0-1.757-1.845.485.485,0,0,1,.245-.106c1.458-.022,2.879-.157,3.867,1.118,1.227,1.585.034,4.308,1.875,5.379Z" transform="translate(-129.399 170.851)" fill="#ea4335"/>
  </g>
</svg>
