<svg xmlns="http://www.w3.org/2000/svg" width="60" height="60" viewBox="0 0 60 60">
  <g id="Group_42761" data-name="Group 42761" transform="translate(12386.51 564.76)">
    <g id="HRS" transform="translate(-12386.51 -564.76)">
      <path id="Path_42706" data-name="Path 42706" d="M883.052,443.426c-.329.344-4.363-2.9-5.153-2.941v13.793H874.86c-2.825,0-7,2.912-8.837,4.962-.346.386-.515,1.141-1.011,1.107v-5.334h-7.546v7.54h6.442a16.229,16.229,0,0,0-.92,8.644H834.918l-.275-.275V440.487l-5.153,3.126v-5.056l26.781-17.317,26.779,17.317v4.874Zm-27.976,1.655H847.53v7.264l.275.275H854.8l.275-.275v-7.264Zm9.939,0h-7.546v7.264l.275.275h6.994l.275-.275v-7.264Zm-9.939,9.93H847.53v7.54h7.546Z" transform="translate(-829.49 -421.24)" fill="#4684f5"/>
      <path id="Path_42707" data-name="Path 42707" d="M981.417,560.753a12.736,12.736,0,1,1-8.255,20.632C966.95,573.8,971.657,561.849,981.417,560.753Zm0,1.834c-12.352,1.552-12.082,20.679.693,21.65C997.972,585.442,997.63,560.551,981.415,562.587Z" transform="translate(-935.828 -526.059)" fill="#4684f5"/>
      <path id="Path_42711" data-name="Path 42711" d="M1008.059,589.358c-3.849-.389-4.675-4.9-1.234-6.654.28-.143,1.161-.317,1.2-.364.219-.256-.175-1.23.861-1.23s.59.993,1.013,1.355c.224.192,1.026.275,1.468.558.647.416,1.95,1.707,1.2,2.471-1.089,1.116-1.844-1.016-2.855-1.1v3.494a3.628,3.628,0,0,1,1.362,6.967c-.366.18-1.06.231-1.254.366-.165.116-.1,1.244-.939,1.244s-.76-1.129-1.011-1.321c-.384-.3-1.478-.376-2.223-1.092-.634-.61-1.621-2.454-.261-2.673,1.439-.234,1.291,1.67,2.666,1.839V589.36Zm0-4.965c-1.982.12-1.879,2.614,0,2.941Zm1.66,8.828c1.984-.14,1.955-3,0-3.31Z" transform="translate(-962.4 -541.476)" fill="#4684f5"/>
    </g>
  </g>
</svg>
