<svg xmlns="http://www.w3.org/2000/svg" width="60" height="58" viewBox="0 0 60 58">
  <g id="Group_42767" data-name="Group 42767" transform="translate(12410 -398.44)">
    <g id="TAX" transform="translate(-13217.625 9)">
      <path id="Path_42795" data-name="Path 42795" d="M834.115,440.884H808.445c-.332,0-.933-.786-.8-1.16V390.6c-.131-.374.471-1.16.8-1.16H838.96l.216.205v4.663c0,.724,1.633,2.264,2.387,2.264h4.917l.216.205v7.545a8.826,8.826,0,0,0-.729.955,2.775,2.775,0,0,0-.2,1.586c-1.261.15-2.366.141-3.095,1.32-1.394,2.258,2.171,4.691,3.3,6.427a3.15,3.15,0,0,0-.725,4.65,24.819,24.819,0,0,0-10.652,13.495,13.481,13.481,0,0,0-.474,8.124ZM821.345,401.61a1.1,1.1,0,0,0-.351-1.85,32.421,32.421,0,0,0-4.744-.031c-.767.086-1.051.554-.931,1.3.154.953,1.159.744,1.926.783l.216.205c.285,1.252-.368,5.741.156,6.573a1.233,1.233,0,0,0,1.753,0l.2-6.671C819.793,401.611,820.867,401.976,821.345,401.61Zm5.21-1.846a3.333,3.333,0,0,0-2.5,2.154c-.4,1.791.112,4.57,0,6.462.166.594,1.014.7,1.525.473.762-.345.26-2.167.5-2.821.145-.2,2.106-.266,2.233.1.156.444-.507,2.462.551,2.764s1.527-.352,1.635-1.276a23.152,23.152,0,0,0-.243-5.805,3.368,3.368,0,0,0-3.7-2.049Zm9.152,2.436c-.376-.748-1.113-2.64-2.21-2.447-2.219.389.719,3.664,1.045,4.573-.179.92-3.178,4.156-1.19,4.57,1.4.293,1.728-1.378,2.341-2.218l.3-.086c.6.894,1.018,2.726,2.47,2.271,1.8-.563-1.122-3.606-1.3-4.537,0-.55,1.776-2.583,1.951-3.358a1.125,1.125,0,0,0-1.73-1.085c-.442.264-1,1.646-1.356,2.137-.087.119.023.255-.32.178ZM812.1,413.073c-.914.136-1.379.585-1.091,1.512s3.733.81,4.09.1c.858-1.71-1.884-1.776-3-1.611Zm6.8,0c-2.086.083-1.905,2.132.106,2.154,6.637-.4,13.986.539,20.54.007,1.043-.084,2.017-.343,1.629-1.556-.147-.458-1.174-.6-1.637-.642C832.988,412.478,825.539,413.422,818.9,413.075Zm-7.241,6.3a.976.976,0,0,0-.112,1.831,10.76,10.76,0,0,0,3.272-.068,1.065,1.065,0,0,0-.183-1.763,16.8,16.8,0,0,0-2.975,0Zm6.361,0c-.831.227-.76,1.892.251,1.9h17.8c.964,0,1.084-1.549.351-1.855l-18.406-.042Zm-5.922,6.044c-.914.136-1.379.585-1.091,1.512s3.725.825,4.09.1c.858-1.71-1.884-1.776-3-1.611Zm6.653,0c-1.944.247-1.737,2.062.257,2.161.494.024.858-.141,1.29-.145,4.148-.035,8.3.035,12.447.007,1.683-.519,1.124-1.9-.582-2.058C827.95,424.986,823.035,425.648,818.75,425.419Zm-7.092,6.3a.976.976,0,0,0-.112,1.831,10.756,10.756,0,0,0,3.272-.068,1.065,1.065,0,0,0-.183-1.763,16.787,16.787,0,0,0-2.975,0Zm6.361,0a1.022,1.022,0,0,0,.118,1.888l11.279.005a.963.963,0,0,0,0-1.926l-11.4.031Z" transform="translate(0 0)" fill="#34a853"/>
      <path id="Path_42796" data-name="Path 42796" d="M965.85,557.289a51.687,51.687,0,0,1,7.925-.041c3.376.3,7.906,5.918,9.491,8.712,8.282,14.584-1.427,20.122-15.287,19.441-14.273-.7-18.107-8.866-10.4-20.773,1.481-2.287,5.511-6.872,8.267-7.337Zm3.076,14.975v6.35a2.775,2.775,0,0,1-1.8-1.452c-.486-.935-.147-2.883-1.708-2.565-1.585.324-.538,3.087.01,3.972a5.638,5.638,0,0,0,2.634,2.135c.2.091.81.206.841.243.282.328-.127,1.346,1.386,1.122.966-.143.642-.9.831-1.122.064-.073,1.415-.472,1.813-.717a5.4,5.4,0,0,0-1.836-9.842v-6.35a2.978,2.978,0,0,1,2.106,2.3c.168.629-.048,1.521.895,1.714s1.352-.515,1.352-1.346a5.7,5.7,0,0,0-2.422-4.233c-.418-.27-1.838-.692-1.9-.769-.174-.2.106-.98-.831-1.124-1.506-.231-1.111.8-1.388,1.124-.064.073-1.415.472-1.813.717a5.4,5.4,0,0,0,1.836,9.842Z" transform="translate(-118.697 -138.017)" fill="#34a853"/>
      <path id="Path_42797" data-name="Path 42797" d="M1002.678,479.26h7.81a.723.723,0,0,1,.334.476c-.008.679-1.03,1.743-.129,2.5.667.555,3.454-.253,3.481.706.013.5-3.292,4.321-3.86,4.952a1.6,1.6,0,0,1-.4.039,47.817,47.817,0,0,1-6.813,0,.758.758,0,0,1-.578-.289,44.664,44.664,0,0,1-3.369-4.287.9.9,0,0,1-.168-.417c.025-.854,2.844-.2,3.482-.7,1.128-.889-.7-2.21.206-2.97Z" transform="translate(-155.271 -73.392)" fill="#34a853"/>
      <path id="Path_42798" data-name="Path 42798" d="M1011.093,535.443l9.073-.023a1.083,1.083,0,0,1,0,2.148c-2.619.407-6.223-.28-8.949,0a1.082,1.082,0,0,1-.122-2.125Z" transform="translate(-164.2 -119.119)" fill="#34a853"/>
      <path id="Path_42799" data-name="Path 42799" d="M981.75,398.43l.962.629,2.8,3.051c-1.012.077-3.762.415-3.762-1.153Z" transform="translate(-141.024 -7.256)" fill="#34a853"/>
      <path id="Path_42807" data-name="Path 42807" d="M825.888,518.1c1.115-.174,3.857-.106,3,1.695-.357.75-3.8.893-4.09-.1s.177-1.448,1.091-1.591Z" transform="translate(-13.791 -104.939)" fill="#fff"/>
      <path id="Path_42812" data-name="Path 42812" d="M905.351,458.828h-2.025C902.6,455.913,906.049,455.882,905.351,458.828Z" transform="translate(-77.42 -54.826)" fill="#34a853"/>
      <path id="Path_42813" data-name="Path 42813" d="M1044,643.826V637.91A3.1,3.1,0,0,1,1044,643.826Z" transform="translate(-191.423 -203.231)" fill="#34a853"/>
      <path id="Path_42814" data-name="Path 42814" d="M1023.693,593.01v5.916A3.1,3.1,0,0,1,1023.693,593.01Z" transform="translate(-173.226 -166.232)" fill="#34a853"/>
    </g>
  </g>
</svg>
