<svg id="Group_42778" data-name="Group 42778" xmlns="http://www.w3.org/2000/svg" width="45" height="60" viewBox="0 0 45 60">
  <g id="Inflation">
    <path id="Path_42936" data-name="Path 42936" d="M937.637,478.228c2.337-2.683,5.791-3.624,9.134-4.808a41.76,41.76,0,0,0,.038,9.451c1.159,8.714,3.374,13.983-.471,22.872-8.4,19.434-38.721,16.4-42.366-4.715-1.381-8.009.539-12.405,2.5-19.749a33.108,33.108,0,0,0,1.167-12.4c2.746.708,6.285,3.173,7.539,5.637.256.5.88,2.912,1.171,2.908,3.534-5.462,6.331-12.38,3.856-18.694a19.839,19.839,0,0,1,17.427,19.5Zm4.571,16.3c1.775.326.62-1.792.214-2.744a14.745,14.745,0,0,0-13.931-9.279v.8A14.283,14.283,0,0,1,942.2,494.525Zm-18.628-8.47c-18.846,1.878-16.693,29.289,3.052,27.972C946,512.733,943.964,484.023,923.58,486.055Z" transform="translate(-903.504 -458.73)" fill="#fbbc05"/>
    <path id="Path_42939" data-name="Path 42939" d="M935.189,537.839c19.841-2.4,19.813,27.354.724,25.646C920.93,562.143,920.891,539.572,935.189,537.839Zm1.651,13.187v6.366a2.121,2.121,0,0,1-1.736-.785c-.6-.628-.991-2.794-1.576-2.663-1.09,1.207.568,3.27,1.63,3.934a13.609,13.609,0,0,0,1.651.6c.167.2-.217,1.69.43,1.829.8.167.522-1.271.92-1.729.323-.373,1.651-.639,2.237-1.207a4.228,4.228,0,0,0-2.5-7.14v-6.366c1.758.057,2.106,1.2,2.613,2.56.785,2.095,1.481.107.536-1.594-.845-1.52-2.972-1.878-3.117-2.052-.167-.2.213-1.694-.43-1.829-.948-.2-.533,1.651-.682,1.832A4.152,4.152,0,0,0,936.84,551.026Z" transform="translate(-915.598 -509.218)" fill="#fbbc05"/>
    <path id="Path_42941" data-name="Path 42941" d="M954.259,555.06v6.1C950.669,560.8,950.7,555.3,954.259,555.06Z" transform="translate(-933.099 -520.573)" fill="#fbbc05"/>
    <path id="Path_42942" data-name="Path 42942" d="M962.12,582.08v-6.1C965.706,576.335,965.614,581.7,962.12,582.08Z" transform="translate(-939.59 -534.004)" fill="#fbbc05"/>
  </g>
</svg>
