<svg xmlns="http://www.w3.org/2000/svg" width="57" height="60" viewBox="0 0 57 60">
  <g id="Group_42779" data-name="Group 42779" transform="translate(12423.543 -1815.24)">
    <g id="margin" transform="translate(-12423.543 1815.24)">
      <path id="Path_42962" data-name="Path 42962" d="M818.881,392.98v26.728l-23.957,13.767c-.368.038-.765-.981-.913-1.292a28.141,28.141,0,0,1-.1-23.215c4.378-9.594,14.332-16.23,24.966-15.986ZM811.3,404.515c.484.308.591,1.287,1.225,1.384a.789.789,0,0,0,.857-.859c-.484-.668-1.981-4.016-2.5-4.254a.983.983,0,0,0-.945.107l-2.256,4.147c.625,1.951,1.412.234,2.082-.525v14.42c0,.807,1.544.807,1.544,0v-14.42Zm-8.7,5.2c.484.308.591,1.287,1.225,1.384a.789.789,0,0,0,.857-.859,40.946,40.946,0,0,0-2.161-3.892c-.574-.724-1.033-.516-1.525.141-.238.319-1.984,3.517-2.02,3.751a.772.772,0,0,0,.966.827l1.116-1.493v14.559c0,.758,1.544.758,1.544,0v-14.42Z" transform="translate(-791.457 -390.024)" fill="#4285f4"/>
      <path id="Path_42963" data-name="Path 42963" d="M844.749,567.95A9.428,9.428,0,0,0,841.627,557a8.911,8.911,0,0,0-13.427,3.68,9.55,9.55,0,0,0-.184,7.27A25.886,25.886,0,0,1,813.5,556.218L837,542.37l.34,0,22.41,13.266A26.868,26.868,0,0,1,844.749,567.95Z" transform="translate(-809.366 -512.203)" fill="#4285f4"/>
      <path id="Path_42964" data-name="Path 42964" d="M951.882,377.242a28.7,28.7,0,0,1,11.649,3.447l-1.545,1.122a9.233,9.233,0,0,0,6.932,16.232c3.181-.308,5.55-2.345,7.244-4.907,1.741,3.654,3.235,7.57,3.37,11.676H951.88V377.24Z" transform="translate(-922.685 -377.24)" fill="#4285f4"/>
      <path id="Path_42965" data-name="Path 42965" d="M990.027,538.5a26.543,26.543,0,0,1-2.892,13.073L964.62,538.5Z" transform="translate(-933.036 -508.764)" fill="#4285f4"/>
      <path id="Path_42966" data-name="Path 42966" d="M903.81,619.372c11.573-1.388,11.721,16.217.384,15.292C895.312,633.94,895.126,620.415,903.81,619.372Zm3.787,6.116c.469-.741-.133-1.878-.739-2.358-.253-.2-.88-.394-.981-.565-.311-.523.007-1.63-1.337-1.195-.384.263-.174.943-.343,1.2-.075.114-.606.233-.85.415a2.372,2.372,0,0,0-1.05,2.465c.248,2.4,3.826,1.654,4.181,2.842.478,1.606-1.733,2.277-2.714,1.174-.535-.6-.176-1.592-1.249-1.412-.818.137-.5,1.491-.2,2.018.48.822,1.791,1.217,1.879,1.352.184.281-.075.981.377,1.178,1.317.572,1.054-.934,1.367-1.247.129-.129.617-.233.867-.4a2.806,2.806,0,0,0,.992-3.567c-.761-1.57-3.7-1.084-4.044-2.146-.375-1.176,1.641-1.771,2.333-.782.439.626.2,1.662,1.506,1.024Z" transform="translate(-877.956 -574.699)" fill="#4285f4"/>
      <path id="Path_42967" data-name="Path 42967" d="M1003.382,398.2c9.774-1.107,11.813,13.546,2.313,15.258C995.194,415.353,993.075,399.369,1003.382,398.2Zm-.158,3.808c-1.652-1.774-4.576.551-3.039,2.553A1.987,1.987,0,1,0,1003.224,402.009Zm4.5-.587L999.9,409.2a.76.76,0,0,0,1.2.921l7.628-7.838A.785.785,0,0,0,1007.725,401.422Zm.413,5.511c-2.061-2.067-5.01,1.624-2.388,3.166A2.006,2.006,0,0,0,1008.138,406.933Z" transform="translate(-959.056 -394.222)" fill="#4285f4"/>
      <path id="Path_42970" data-name="Path 42970" d="M927.439,634.058c-1.305.636-1.069-.4-1.506-1.024-.692-.988-2.708-.392-2.333.782.339,1.062,3.282.574,4.044,2.146a2.806,2.806,0,0,1-.992,3.567c-.251.163-.737.266-.867.4-.311.313-.051,1.819-1.367,1.247-.452-.2-.2-.9-.377-1.178-.088-.135-1.4-.531-1.879-1.352-.308-.527-.623-1.881.2-2.018,1.075-.18.715.812,1.249,1.412.981,1.1,3.192.433,2.714-1.174-.354-1.187-3.933-.441-4.181-2.842a2.373,2.373,0,0,1,1.05-2.465c.244-.182.775-.3.85-.414.169-.259-.041-.94.343-1.2,1.343-.435,1.026.673,1.337,1.195.1.169.728.364.981.565.606.48,1.208,1.615.739,2.358Z" transform="translate(-897.803 -583.269)" fill="#fff"/>
      <path id="Path_42974" data-name="Path 42974" d="M1048.521,449.8c.315.219.081,1.227-.546.906C1047.255,450.343,1048.1,449.512,1048.521,449.8Z" transform="translate(-1000.529 -436.328)" fill="#4285f4"/>
      <path id="Path_42975" data-name="Path 42975" d="M1022.219,423.468c.328.208.083,1.223-.542.9C1020.983,424.01,1021.617,423.088,1022.219,423.468Z" transform="translate(-978.928 -414.724)" fill="#4285f4"/>
    </g>
  </g>
</svg>
