<svg xmlns="http://www.w3.org/2000/svg" width="60.001" height="54" viewBox="0 0 60.001 54">
  <g id="NCA" transform="translate(-868.43 -440.503)">
    <path id="Path_42856" data-name="Path 42856" d="M960.529,597.092l-.324.264c-2.669.044-5.106,1.39-7.648,2.123-6.287,1.818-9.189,2.063-15.026-1.084-2.534-1.366-5.054-3.09-7.554-4.56-1.4-.825-5.352-2.565-6.083-3.688-1.528-2.348.538-5.717,3.416-4.785l10.74,4.6c.311-5.057,7.237-2.481,10.607-3.171,2.317-.473,5.258-3.278,8.251-3.278h3.322l.292.293v13.287Z" transform="translate(-41.097 -106.309)" fill="#fbbc05"/>
    <path id="Path_42857" data-name="Path 42857" d="M903.245,444.151c.146-.475,1.669-.24,2.2-.34,3.811-.7,7.332-3,11.761-3.286,6.289-.4,12.474,4.571,17.758,7.663,1.358.794,4.161,1.849,4.861,3.15,1.113,2.061-.2,4.863-2.648,4.756a7.337,7.337,0,0,1-1.878-.622c-1.246-.462-8.974-4.142-9.466-3.991-.47.449-.334,1.076-.7,1.653a3.731,3.731,0,0,1-1.708,1.225c-2.311.47-5.764-.319-8.152.057-1.126.178-3.583,1.854-4.863,2.369a13.194,13.194,0,0,1-5.506.943c-.277.01-1.664.465-1.664-.1V444.148Z" transform="translate(-25.912)" fill="#fbbc05"/>
    <path id="Path_42858" data-name="Path 42858" d="M950.494,501.1c14.9-1.875,18.171,19.879,3.967,22.723C938.912,526.936,935.371,503,950.494,501.1Zm.392,3.516c-8.828,1.212-8.651,14.58-.2,15.726C963.253,522.041,962.85,502.969,950.885,504.612Z" transform="translate(-53.722 -45.01)" fill="#fbbc05"/>
    <path id="Path_42859" data-name="Path 42859" d="M869.263,444.883a35.415,35.415,0,0,1,5.822-.042c.475.052,1.275.214,1.429.721l-.06,17.061-.431.35c-2.045-.193-5.075.394-7,.039-.358-.065-.486-.245-.6-.577l.094-17.121a1.649,1.649,0,0,1,.739-.431Z" transform="translate(0 -3.132)" fill="#fbbc05"/>
    <path id="Path_42860" data-name="Path 42860" d="M1069.667,575.29h7.133a2.2,2.2,0,0,1,.585.392l.107,16.909c-.039.778-.423.818-1.073.883a54.548,54.548,0,0,1-6.558-.107.712.712,0,0,1-.35-.431l.157-17.643Z" transform="translate(-149.062 -100.236)" fill="#fbbc05"/>
    <path id="Path_42862" data-name="Path 42862" d="M979.437,529.366l.018,1.348c-.768.154-.8-.752-1.465-.972-.394.021-.392,1.831-.2,2.147.423.69,2.3.663,1.818,2.789-.256,1.131-1.233,1.011-1.713,1.416-.3.251-.185.979-.786.872l-.021-.763c-.387-.18-2.053-.183-2.139-.538-.073-.306-.039-1.092.3-1.238.6-.259.9,1.4,1.854.977l-.031-2.019c-1.209-1.047-2.314-1.157-1.868-3.111.235-1.029,1.115-.666,1.619-1.11.3-.264.238-.742.575-.985.431,1.149.948.974,2.032,1.188Zm-2.325.567c-1.076-.232-.974,1.3-.29,1.559C977.368,531.7,977.021,530.152,977.112,529.933Zm1.168,5.273c.151-.6.313-1.481-.58-1.562v1.565h.58Z" transform="translate(-78.925 -65.103)" fill="#fbbc05"/>
    <path id="Path_42863" data-name="Path 42863" d="M981.035,534.822c-.091.222.256,1.768-.29,1.559C980.06,536.12,979.956,534.59,981.035,534.822Z" transform="translate(-82.842 -69.97)" fill="#fff"/>
    <path id="Path_42864" data-name="Path 42864" d="M986.15,550.662h-.58V549.1C986.463,549.178,986.3,550.059,986.15,550.662Z" transform="translate(-86.801 -80.582)" fill="#fff"/>
  </g>
</svg>
