<svg xmlns="http://www.w3.org/2000/svg" width="58" height="60" viewBox="0 0 58 60">
  <g id="Group_42791" data-name="Group 42791" transform="translate(-650 -2846)">
    <g id="Group_42760" data-name="Group 42760" transform="translate(-550.71 2331.243)">
      <path id="Path_42699" data-name="Path 42699" d="M1210.946,596.29v3.987h-2.825c-1.285,0-2.009,1.931-.157,2.15l42.744.016c2.419-.074,5.9,2.849,5.9,5.272v5.137h-11.988c-1.265,0-3.925,1.595-4.818,2.523-4.169,4.342-2.362,12.016,3.37,13.806.2.061,1.373.387,1.446.387H1256.6v5.137c0,2.273-3.072,4.934-5.271,5.135-7.6.693-16.1-.555-23.8.1l-17.136-.1c-4.29.428-8.6-.088-9.691-4.975V601.427c0-1.9,3.031-5.137,4.812-5.137h5.422Z" transform="translate(0 -65.301)" fill="#fbbc05"/>
      <path id="Path_42700" data-name="Path 42700" d="M1340.263,535.457H1336.2c-.045,0-.215.213-.383.154l1.207-2.993a6.747,6.747,0,0,1-3.518-8.655c-2.062-.611-3.915-1.925-6.033-2.32a6.67,6.67,0,0,1-6.609,3.833c-.412-.053-1.626-.607-1.91-.428l-4.317,10.411h-4.6l7.947-18.82a4.451,4.451,0,0,1,5.447-1.544c4.28,1.433,9.28,3.991,13.511,5.824,3.007,1.3,7.49,2.076,6.822,6.453l-3.493,8.089Z" transform="translate(-87.187 0)" fill="#fbbc05"/>
      <path id="Path_42701" data-name="Path 42701" d="M1400.238,686.861a75.871,75.871,0,0,1,11.322-.051,1.951,1.951,0,0,1,1.761,1.613c-.258,2.909.334,6.371,0,9.208a2.031,2.031,0,0,1-1.765,1.611c-3.536-.221-7.4.285-10.9-.006-7.431-.619-7.593-11.467-.42-12.377Zm1.986,3.825c-2.273.469-2.171,4.461.424,4.719C1406.535,695.79,1406.3,689.845,1402.224,690.686Z" transform="translate(-154.715 -136.991)" fill="#fbbc05"/>
      <path id="Path_42702" data-name="Path 42702" d="M1288.218,543.592h-2.148c1.025-3.788,1.88-7.636,2.925-11.418.459-1.664,1.052-4.778,2.21-5.92a4.068,4.068,0,0,1,4.663-.84l-7.65,18.18Z" transform="translate(-67.962 -8.135)" fill="#fbbc05"/>
      <path id="Path_42704" data-name="Path 42704" d="M1264.674,551.512l-1.824-.068,1.574-12.682a4.554,4.554,0,0,1,2.95-3.493c.283-.1,1.849-.611,1.7.01Z" transform="translate(-49.47 -16.076)" fill="#fbbc05"/>
    </g>
  </g>
</svg>
