<svg id="post_office_emi" data-name="post office emi" xmlns="http://www.w3.org/2000/svg" width="60" height="60" viewBox="0 0 60 60">
  <path id="Path_42944" data-name="Path 42944" d="M856.9,399.227c23.98-1.365,39.878,24.891,27.34,45.57-11.622,19.169-39.609,19.174-51.233,0C821.281,425.451,834.468,400.5,856.9,399.227Zm1.723,36.887V417.456c0-.666-.924-1.333-1.588-1.411-4.906-.576-10.9.443-15.923,0-1.371.163-1.51,1.15-1.6,2.34-.5,6.975.4,14.541,0,21.579.192,1.27.13,2.027,1.59,2.16,5.116.466,10.925-.368,16.116-.005.956-.11,1.051-.481,1.308-1.318.187,0-.05,1.255.592,1.471a20.258,20.258,0,0,0,3.308,0,.639.639,0,0,0,.362-.388,19.9,19.9,0,0,0-.07-5.843c-.477-.754-3.518-.749-4.1.075Zm17.319-11.625h-2.809l-.265.3.062.649,1.418.266c-.9.727-2.686,3.54-3.56,3.946-.2.1-.349.148-.552,0l-4.569-3.069-5.258,5.61a.625.625,0,0,0,.365,1.12c.659,0,4.179-4.683,5.081-5.236.322-.055,3.832,2.786,4.571,3.077a.508.508,0,0,0,.547.005c.941-.431,3.073-3.588,4.032-4.414l.4,1.142C876.673,428.873,876.77,424.719,875.944,424.489Zm-2.152,4.592v12.752l.28.281h3.465V428.941c-.285-.526-3.55-.506-3.745.143Zm-9.642,1.969-.28.281v10.5l.28.281h3.183l.28-.281v-10.5l-.28-.281Zm4.773,11.064h3.465l.28-.281v-8.062l-.28-.281h-3.465v8.626Z" transform="translate(-828.638 -399.176)" fill="#4285f4"/>
  <path id="Path_42950" data-name="Path 42950" d="M894.206,495.079H877.5V471.3l.284-.284H893.92l.284.284v23.775Zm-1.519-16.48c.271,0,.266-4.959.185-5.394a.746.746,0,0,0-.375-.575H879.206a1.36,1.36,0,0,0-.38.944,27.52,27.52,0,0,0,.1,4.642,1.74,1.74,0,0,0,.377.382H892.69Zm-13.623,1.369a5.514,5.514,0,0,0,.046,3.559,6.881,6.881,0,0,0,3.44.013c.4-.316.395-3.161.1-3.541-.337-.428-3.227-.385-3.579-.03Zm8.687-.046a8.19,8.19,0,0,0-3.8,0v3.6c.187-.061.413.19.476.19h3.037l.284-.283Zm4.89.046c-.352-.352-3.242-.395-3.579.03-.3.38-.306,3.225.1,3.541s3.232.306,3.549-.094a6.414,6.414,0,0,0-.063-3.478Zm-13.623,4.88c-.195,0-.483,3.46.284,3.789h3.227l.284-.284v-3.22l-.284-.283h-3.513Zm5.219,0-.284.284v3.22l.284.283h3.227l.284-.283v-3.22l-.284-.284Zm8.449,0h-3.513l-.284.284v3.032c0,.063.251.289.19.473H892.4c.726,0,.526-3.194.284-3.789Zm-9.872,8.431v-3.22l-.283-.284H879.3c-.7.458-.61,3.374-.241,3.744C879.644,493.882,882.613,493.955,882.815,493.279Zm1.423-3.506-.284.284v3.22a3.569,3.569,0,0,0,3.8,0v-3.22l-.284-.284H884.24Zm8.4,3.746c.352-.352.395-3.237-.03-3.574-.38-.3-3.232-.306-3.549.094a6.853,6.853,0,0,0,.013,3.432,5.554,5.554,0,0,0,3.566.046Z" transform="translate(-865.365 -453.142)" fill="#4285f4"/>
</svg>
