<svg xmlns="http://www.w3.org/2000/svg" width="60" height="60" viewBox="0 0 60 60">
  <path id="RD" d="M1165.671,316.956c22.348-1.161,38.042,22.187,28.629,42.605-9.435,20.47-37.515,23.5-51.117,5.49-14.569-19.3-1.443-46.851,22.487-48.095Zm-.1,9.579v2.685l6.577-3.845-6.4-3.721c-.246-.031-.159.008-.181.179-.06.488.208,1.065-.4,1.314A23.734,23.734,0,0,0,1144.5,342.83c.119.2.273-.026.366-.122.321-.336,1.611-2.617,1.768-2.62l1.158,2.439c.2.147.512-1.48.576-1.679a20.068,20.068,0,0,1,17.206-14.309Zm25.577,17.821a23.911,23.911,0,0,0-11.812-18.25c-2.115-1.193-5.677-2.664-8.1-2.749-.135,0-.462-.077-.429.126l3.41,1.834-2.191,1.342c-.036.047.078.152.122.181.407.258,2.134.6,2.8.858a20.237,20.237,0,0,1,12.791,16.658h-1.949l3.107,6.47,4.444-6.47h-2.193Zm-20.1-6.957h4.446c.039,0,.683-.181.76-.215a1.528,1.528,0,0,0-.423-2.806c-.512-.085-1.477-.13-2.037-.156-3.465-.16-7.114.046-10.606.01-1.257-.013-2.735-.406-3.961.171a1.445,1.445,0,0,0-.28,2.371c1.15.848,5.521.01,7.592.936a4.731,4.731,0,0,1,2.561,3.111h-9.682a4.085,4.085,0,0,0-.539.315,1.626,1.626,0,0,0,.052,2.371,4.655,4.655,0,0,0,1.1.365h9.074a4.947,4.947,0,0,1-4.69,3.66c-1.458.114-4.12-.46-5.289.315-.966.641-.74,1.705-.07,2.495l11.179,10.644a1.5,1.5,0,0,0,2.007-1.89c-.122-.474-2.764-2.946-3.317-3.512l-4.692-4.94a20.267,20.267,0,0,0,2.956-.576,8.643,8.643,0,0,0,5.22-6.059c1.222-.184,4.213.561,4.482-1.184.379-2.472-2.857-1.774-4.356-1.9l-1.482-3.518Zm-21.436,11.351-3.047-6.59-4.5,6.59h2.315a23.416,23.416,0,0,0,13.8,19.306,19.088,19.088,0,0,0,5.744,1.57c.137,0,.215.038.184-.124l-2.8-1.712.075-.249,2.36-1.211a20.2,20.2,0,0,1-16.076-17.578h1.949Zm20.339,21.238c10.291-.856,19.65-9.411,20.826-19.772l-2.009,2.806-1.277-2.439a20.214,20.214,0,0,1-17.54,15.988V364.5l-6.575,3.357,6.575,4.334v-2.2Z" transform="translate(-1137.083 -316.915)" fill="#ea4335"/>
</svg>
