<svg xmlns="http://www.w3.org/2000/svg" width="60" height="60" viewBox="0 0 60 60">
  <g id="Group_42764" data-name="Group 42764" transform="translate(12216.33 210.452)">
    <g id="Retirement" transform="translate(-12216.33 -210.452)">
      <path id="Path_42750" data-name="Path 42750" d="M895,465.44c.726,1.978.8,4.721,3.315,5.3l24.508.118c7.395.84,7.934,11.454.937,10.756-1.8-.179-2.322-1.138-3.579-2.131-7.163-.462-15.112.606-22.181-.009a12.616,12.616,0,0,1-10.14-7.2l-6.834-23.111a4.366,4.366,0,0,1-3.051-5.6c1.48-4.735,8.759-3.277,10.68.5l4.358,14.876h13.378a20.278,20.278,0,0,0,4.809,6.491H895Z" transform="translate(-873.974 -440.575)" fill="#34a853"/>
      <path id="Path_42751" data-name="Path 42751" d="M909.719,573.744l4.642,8.636c2.364-1.045,3.995-3.863,6.834-2.561a3.175,3.175,0,0,1,1.8,3.872c-.42,1.527-3.5,3.269-4.917,4.054-13.356,7.369-36.007,7.323-49.141-.514-2.169-1.294-5.351-2.974-3.9-5.937a3.8,3.8,0,0,1,3.3-1.923c1.548.11,4.612,3.225,5.446,2.7l6.3-11.994a17.574,17.574,0,0,0,5.647,3.133l-5.664,11.114c-.148.26-.106.37.13.546A31.327,31.327,0,0,0,885.232,586,54.87,54.87,0,0,0,905,585.565c.485-.1,3.032-.621,3.049-.9l-5.523-10.912h7.186Z" transform="translate(-864.67 -533.192)" fill="#34a853"/>
      <path id="Path_42752" data-name="Path 42752" d="M990.639,440.629c17.42-1.727,19.326,24.535,2.527,25.86C976.054,467.838,974,442.281,990.639,440.629Zm.26,13.978v4.106c-1.877.549-1.423-1.452-2.7-1.533-1.646-.1-1.268,1.776-.508,2.688a3.85,3.85,0,0,0,3.208,1c-.222,1.507.875,2.4,2.053,1.3l.107-1.3c4.048.355,4.259-2.711,3.892-5.939-.237-2.082-1.978-2.723-3.889-2.486v-4.106c2.007-.228,1.374.413,1.926,1.2.924,1.317,2.971-.3,1.415-2.272-.759-.961-2.194-1.089-3.341-1.089.416-2.4-2.48-2.417-2.16,0-2.206.014-3.644.54-3.887,2.922-.309,3.046.04,6.015,3.887,5.506Z" transform="translate(-944.788 -440.548)" fill="#34a853"/>
      <path id="Path_42753" data-name="Path 42753" d="M1009.963,464.038c-3.846.508-4.2-2.46-3.886-5.506.243-2.382,1.678-2.908,3.886-2.922-.32-2.414,2.576-2.394,2.16,0,1.146,0,2.581.127,3.341,1.089,1.559,1.975-.491,3.589-1.415,2.272-.552-.788.081-1.429-1.926-1.2v4.106c1.911-.237,3.653.4,3.889,2.486.37,3.228.159,6.3-3.892,5.939l-.107,1.3c-1.181,1.1-2.275.208-2.053-1.3a3.822,3.822,0,0,1-3.208-1c-.768-.924-1.138-2.792.508-2.688,1.279.081.823,2.079,2.7,1.533v-4.106Zm0-6.266c-2.518-.465-1.663,2.27-1.634,3.9l1.634.2Zm2.16,6.266v4.106c.5-.02,1.672.136,1.744-.531a18.02,18.02,0,0,0-.11-3.37l-1.634-.2Z" transform="translate(-963.853 -449.978)" fill="#fff"/>
      <path id="Path_42754" data-name="Path 42754" d="M1027.23,489.233l1.634.2a18.019,18.019,0,0,1,.11,3.37c-.072.67-1.242.514-1.744.531V489.23Z" transform="translate(-979.314 -475.301)" fill="#34a853"/>
      <path id="Path_42755" data-name="Path 42755" d="M1015.324,467.411v4.106l-1.634-.2C1013.661,469.68,1012.806,466.946,1015.324,467.411Z" transform="translate(-969.539 -459.617)" fill="#34a853"/>
    </g>
  </g>
</svg>
