<svg id="MF" xmlns="http://www.w3.org/2000/svg" width="60" height="55" viewBox="0 0 60 55">
  <g id="Group_42749" data-name="Group 42749">
    <path id="Path_42561" data-name="Path 42561" d="M901.922,473.725c-10.231-9.615,6.007-24.8,14.787-13.457C924.188,469.926,910.767,482.04,901.922,473.725Zm7.334-12.579c-1.439.686-3.289.925-3.461,2.841s1.024,2.483,2.626,3.1l.113,2.248-2.566-.766c-1.555,1.525,1.058,2.009,2.3,2.284l.026.971h.988l.01-.985c3.806-.179,3.673-4.754.023-5.265l-.033-2.45,1.827.71.9-1.2c-.855-.474-2.526-.53-2.748-1.479Z" transform="translate(-886.646 -456.235)" fill="#34a853"/>
    <path id="Path_42562" data-name="Path 42562" d="M1006.728,543.525V522.512l-1.449-.411-.169-1.449,5.567-6.614c.64-.623,1.061-.418,1.644.133a65.975,65.975,0,0,1,4.817,5.613c1.2,1.558,1.217,2.453-1,2.463l-.355,21.03c-.229.414-.56.454-.981.507-.637.083-8.073.146-8.073-.259Z" transform="translate(-957.948 -495.399)" fill="#34a853"/>
    <path id="Path_42563" data-name="Path 42563" d="M924.917,520.5v26.981a3.818,3.818,0,0,1-.62.869h-8.186l-.371-.371V520.5A16.188,16.188,0,0,0,924.917,520.5Z" transform="translate(-898.079 -499.974)" fill="#34a853"/>
    <path id="Path_42564" data-name="Path 42564" d="M968.152,537.148l-.123,16.166c-.229.414-.56.454-.981.507a58.783,58.783,0,0,1-7.576-.136,1.053,1.053,0,0,1-.507-.985l.013-15.552-1.492-.119a1.418,1.418,0,0,1-.438-.789c-.073-.912,5.106-6,5.755-7.31a1.225,1.225,0,0,1,1.651.123l5.5,6.684c.414,1.29-.676,1.595-1.807,1.416Z" transform="translate(-925.754 -505.433)" fill="#34a853"/>
    <path id="Path_42565" data-name="Path 42565" d="M873.774,552.173c-.275,3.183.371,6.966.007,10.076-.153,1.293-.656,1.512-1.853,1.625-1.011.093-6.83.119-7.267-.318l-.305-11.379c-.786.063-1.575.03-1.747-.885-.086-1.1,5.006-5.838,5.7-7.214a.989.989,0,0,1,.875-.368c.885.086,5.076,5.9,6.15,6.79.574,1.316-.3,1.827-1.548,1.678Z" transform="translate(-862.493 -515.484)" fill="#34a853"/>
    <path id="Path_42566" data-name="Path 42566" d="M920.685,618.931c-.1.166-1.034.279-1.315.292-18.164-.981-37.626,1.267-55.634,0-2.359-.166-1.589-2.012.248-2.012l56.007.123C920.642,617.406,920.979,618.457,920.685,618.931Z" transform="translate(-862.264 -564.621)" fill="#34a853"/>
    <path id="Path_42568" data-name="Path 42568" d="M931.793,491.108a1.852,1.852,0,0,1-.593.282l-.544-.378c-.292-1.7.265-2.42,1.416-.908A1.326,1.326,0,0,1,931.793,491.108Z" transform="translate(-908.006 -478.482)" fill="#34a853"/>
    <path id="Path_42569" data-name="Path 42569" d="M925.935,476.993v1.863C924.387,479.317,924.162,476.887,925.935,476.993Z" transform="translate(-904.061 -470.109)" fill="#34a853"/>
  </g>
</svg>
