<svg xmlns="http://www.w3.org/2000/svg" width="60" height="60" viewBox="0 0 60 60">
  <g id="Group_42766" data-name="Group 42766" transform="translate(12463 95)">
    <g id="simple_in" data-name="simple in" transform="translate(-12463 -95)">
      <path id="Path_42778" data-name="Path 42778" d="M855.8,266.791c-.735-.748-1.426-1.592-2.217-2.249l-.209.093L836.288,280.4c-.241.063-.931-.728-1.139-.942-.875-.893-1.7-1.936-2.555-2.865-.355-.389-1.533-1.375-1.611-1.8-.07-.384,1.27-1.38,1.565-1.662.848-.809,1.74-1.6,2.606-2.412,4.307-4.016,8.576-8.081,12.946-12.012l-3.159-3.609-.036-.229a.425.425,0,0,1,.263-.249,19.309,19.309,0,0,1,2.09-.321c2.959-.341,5.969-.515,8.936-.806a28.341,28.341,0,0,1,3.32-.386c.746.02.315.622.27.963-.6,4.51-1.689,8.963-2.382,13.486C857.025,268.536,856.182,267.179,855.8,266.791Z" transform="translate(-822.345 -253.107)" fill="#34a853"/>
      <path id="Path_42779" data-name="Path 42779" d="M794.539,484.741c-2.09,2.84-8.941,4.008-12.261,4.159-4.035.184-12.009-.742-14.769-4.02-2.9-3.44,1.84-5.981,4.654-6.9,5.469-1.781,13.661-1.738,18.968.551C793.563,479.582,796.676,481.837,794.539,484.741Zm-14.223-2.021v1.607c0,.256-1.036-.031-1.207-.1-.382-.15-.806-.708-1.057-.755a12.1,12.1,0,0,0-1.586.217.21.21,0,0,0-.166.232c.954,1.123,2.554,1.255,3.923,1.4l.188.716,1.269-.05.137-.667a9.107,9.107,0,0,0,2.975-.641c.758-.41,1.34-1.247.545-1.961-.71-.637-2.672-.9-3.614-.956v-1.557c0-.637,1.95.644,2.066.651.347.023.983-.369,1.45-.2.341-.354-.96-.967-1.206-1.054a12.83,12.83,0,0,0-2.252-.339c.031-.873-.8-.669-1.42-.52l-.1.52a5.993,5.993,0,0,0-2.8.695,6.74,6.74,0,0,0-.628.524c-.622,1.513,2.35,2.056,3.321,2.1l.166.135Z" transform="translate(-766.604 -444.395)" fill="#34a853"/>
      <path id="Path_42780" data-name="Path 42780" d="M1028.665,373.493c2.559,2.033,1.922,4.44-.57,6.127-5.548,3.754-19.28,3.758-24.65-.342-2.491-1.9-2.15-4.416.327-6.123,5.54-3.819,19.562-3.9,24.892.339Zm-13.217,2.821v1.506c0,.258-1,.044-1.188-.017a2.791,2.791,0,0,1-1.085-.825l-1.843.44c.893,1.174,2.561,1.259,3.922,1.5l.188.716c.817.086,1.443.276,1.422-.751,1-.07,3.833-.431,3.918-1.767.089-1.408-3.149-1.729-4.113-1.872-.044-.071-.1-1.49.15-1.579.9-.3,1.578.765,1.992.782.168.007.354-.145.528-.172.2-.03.982.034.934-.275-.09-.573-1.95-1.061-2.475-1.144-.252-.04-.8.055-.95-.055-.115-.085-.076-.377-.185-.518-.225-.29-.974-.109-1.3-.03.055.813-.31.519-.853.6a4.7,4.7,0,0,0-2.375.939c-.48.483-.487.775-.048,1.261.837.928,2.326.794,3.367,1.253Z" transform="translate(-970.334 -353.364)" fill="#34a853"/>
      <path id="Path_42781" data-name="Path 42781" d="M794.3,561.341c.111-.078.245-.312.53-.138a9.466,9.466,0,0,1,.571,1.085c.667,2.617-1.811,4.271-3.883,5.161-5.466,2.349-14.308,2.4-19.874.317-1.933-.724-5.008-2.472-4.711-4.915.05-.41.519-1.721,1.041-1.67.447.287.8.679,1.246.974,5.593,3.686,18.348,3.609,23.965.032C793.574,561.938,793.92,561.6,794.3,561.341Z" transform="translate(-766.869 -516.372)" fill="#34a853"/>
      <path id="Path_42782" data-name="Path 42782" d="M1028.336,618.414c-5.493,3.965-18.876,3.868-24.462.02a4.876,4.876,0,0,1-2-2.522,2.7,2.7,0,0,1,.958-2.739,9.885,9.885,0,0,0,3.093,2c6.008,2.6,17,2.551,22.538-1.2.182-.123,1.009-.842,1.079-.826,1.686,2.114.714,3.876-1.21,5.265Z" transform="translate(-970.423 -561.404)" fill="#34a853"/>
      <path id="Path_42783" data-name="Path 42783" d="M1028.584,561.287c.141-.1.456-.512.609-.554.46-.125.958,1.213,1.01,1.571.275,1.868-1.363,3.321-2.836,4.147-5.713,3.207-17.508,3.206-23.141-.168-1.8-1.077-3.446-3.05-2.087-5.172.091-.142.224-.394.416-.392.124,0,1.67,1.2,2.028,1.391,5.992,3.292,18.36,3.221,24-.824Z" transform="translate(-970.249 -516.008)" fill="#34a853"/>
      <path id="Path_42784" data-name="Path 42784" d="M1028.487,508.245c.75-.531.828-.966,1.365.275,1.314,3.033-2.31,4.984-4.641,5.84-5.592,2.055-14.674,2-20.106-.579-1.856-.881-4.075-2.544-3.47-4.919.05-.2.618-1.167.845-1.162.115,0,1.245.927,1.494,1.084,5.93,3.738,18.795,3.513,24.512-.542Z" transform="translate(-970.157 -471.117)" fill="#34a853"/>
      <path id="Path_42785" data-name="Path 42785" d="M1029.641,454.709c1.418,1.384.392,3.648-.954,4.707-5.326,4.192-19.251,4.111-24.774.381-1.419-.959-2.485-2.24-2.114-4.068.048-.236.609-1.268.848-1.26.118,0,1.242.926,1.493,1.084,5.711,3.6,18.384,3.583,24.025-.174.245-.164,1.105-.966,1.276-.92.1.058.125.177.2.252Z" transform="translate(-970.323 -425.524)" fill="#34a853"/>
      <path id="Path_42786" data-name="Path 42786" d="M794.827,614.556a9.225,9.225,0,0,1,.594,1.162,3.6,3.6,0,0,1-1.693,3.785c-5.345,4.07-18.757,4.016-24.345.457-1.273-.811-2.66-2.08-2.455-3.756.05-.41.519-1.721,1.041-1.67.457.311.848.7,1.315,1.006,5.584,3.62,18.281,3.529,23.9,0,.369-.232,1.3-1.2,1.646-.986Z" transform="translate(-766.868 -562.594)" fill="#34a853"/>
      <path id="Path_42788" data-name="Path 42788" d="M842.863,494.917l-.166-.135c-.971-.042-3.943-.586-3.321-2.1a7.1,7.1,0,0,1,.628-.524,5.993,5.993,0,0,1,2.8-.695l.1-.52c.617-.149,1.451-.353,1.42.52a12.978,12.978,0,0,1,2.252.339c.245.087,1.547.7,1.206,1.054-.467-.17-1.1.221-1.45.2-.114-.008-2.066-1.288-2.066-.651v1.557c.942.056,2.9.319,3.614.956.8.714.213,1.551-.545,1.961a9.177,9.177,0,0,1-2.975.641l-.137.667-1.269.05-.188-.716c-1.37-.146-2.97-.278-3.923-1.4a.211.211,0,0,1,.166-.232,11.906,11.906,0,0,1,1.586-.217c.252.046.675.6,1.057.755.172.067,1.207.355,1.207.1v-1.607Zm0-2.562c-1.728-.082-1.96,1.3-.1,1.364Zm2.982,3.046a2.576,2.576,0,0,0-1.561-.318,3.031,3.031,0,0,0-.071,1.5c.2.287,1.936-.152,1.859-.759a1.018,1.018,0,0,0-.227-.42Z" transform="translate(-829.177 -456.686)" fill="#fff"/>
      <path id="Path_42789" data-name="Path 42789" d="M1077.359,388.109c-1.041-.459-2.53-.326-3.367-1.253-.439-.486-.432-.778.048-1.261a4.711,4.711,0,0,1,2.375-.939c.543-.083.91.211.853-.6.329-.078,1.077-.259,1.3.03.11.141.07.433.185.518.152.11.7.015.95.055.524.083,2.385.57,2.475,1.144.048.309-.734.244-.934.275-.174.025-.361.178-.528.172-.416-.017-1.089-1.081-1.992-.782-.256.087-.194,1.506-.15,1.579.964.143,4.2.464,4.112,1.872-.084,1.336-2.913,1.7-3.918,1.767.021,1.029-.6.837-1.422.751l-.188-.716c-1.361-.241-3.027-.326-3.922-1.5l1.843-.44a2.768,2.768,0,0,0,1.085.825c.185.062,1.188.275,1.188.017v-1.506Zm-1.274-2.329c-.787.707.96,1.365,1.231.979a2.37,2.37,0,0,0-.05-1.268,1.434,1.434,0,0,0-1.18.288Zm2.48,2.479v1.457c0,.338,1.6-.035,1.813-.394.518-.857-1.218-1.217-1.813-1.061Z" transform="translate(-1032.22 -365.142)" fill="#fff"/>
      <path id="Path_42790" data-name="Path 42790" d="M880.091,522.687a1.025,1.025,0,0,1,.227.42c.076.608-1.658,1.046-1.859.759a3.031,3.031,0,0,1,.071-1.5,2.585,2.585,0,0,1,1.561.318Z" transform="translate(-863.432 -483.943)" fill="#34a853"/>
      <path id="Path_42791" data-name="Path 42791" d="M859.807,502.307l-.1,1.364C857.847,503.606,858.079,502.226,859.807,502.307Z" transform="translate(-846.123 -466.788)" fill="#34a853"/>
      <path id="Path_42792" data-name="Path 42792" d="M1112.94,416c.6-.156,2.331.2,1.813,1.061-.217.359-1.813.732-1.813.394V416Z" transform="translate(-1066.594 -392.749)" fill="#34a853"/>
      <path id="Path_42793" data-name="Path 42793" d="M1093.136,395.59a1.435,1.435,0,0,1,1.18-.288,2.37,2.37,0,0,1,.05,1.268c-.271.386-2.019-.272-1.231-.979Z" transform="translate(-1049.263 -374.995)" fill="#34a853"/>
    </g>
  </g>
</svg>
