<svg xmlns="http://www.w3.org/2000/svg" width="59.931" height="59" viewBox="0 0 59.931 59">
  <g id="sip" transform="translate(-5.71)">
    <g id="Group_42743" data-name="Group 42743" transform="translate(5.71)">
      <path id="Path_42027" data-name="Path 42027" d="M146.043,0c.859,1.365,1.542.951,2.695,1.336s.983,1.454,1.483,2.185c.317.467,1.058.7,1.437,1.251.732,1.068.114,1.454.284,2.391.131.706.977,1.414.931,2.247-.039.751-.882,1.378-.973,2-.118.787.389,1.205-.052,2.123-.385.8-1.133.937-1.522,1.424s-.444,1.352-.951,1.862c-.715.725-1.512.451-2.3.741-.49.18-1.486,1.842-2.737,1.3v8.575h6.223c1.607,0,3.247,3.681,1.917,4.867l-17.433-.072c-.418-1.176-.5-3,.493-3.946a9.323,9.323,0,0,1,1.352-.846h5.491V18.867c-1.578.562-2.185-1.016-2.933-1.343-.833-.363-1.46.1-2.326-.849-.49-.539-.483-1.137-.836-1.61-.408-.552-1.235-.706-1.532-1.4-.1-.232-.915-4.655-.866-4.9.095-.461.532-.869.627-1.336.183-.892-.16-1.767.323-2.613.323-.565,1.071-.735,1.444-1.245.434-.591.34-1.267,1.088-1.849,1.009-.784,2.407-.163,3.054-1.712h5.615Zm-3.662,7.35c1.016-.124,3.835.555,3.678-1.1-.1-1.022-1.349-.594-1.617-.836-.242-.216-1.16-2.528-2.006-.83-.683,1.369-.3.578-1.294,1.4a2.581,2.581,0,0,0-.7,2.45c.363,2.734,3.714,1.392,3.89,2.224.265,1.274-3.551-.1-3.868,1.271-.343,1.473,1.476.967,1.862,1.352s-.186,1.48,1.147,1.173c.8-.186.621-.872,1.117-1.339.568-.536,1.235-.232,1.437-1.493.47-2.9-1-3.587-3.645-3.293V7.353Z" transform="translate(-93.032)" fill="#ea4335"/>
      <path id="Path_42028" data-name="Path 42028" d="M154.626,162.462c.336,1.934-.278,4.011-2.3,4.606-4.148-.431-9.662.634-13.641,0-2.094-.333-2.293-2.786-2.1-4.478.059-.258.643-.353.882-.382a111.148,111.148,0,0,1,15.855-.036,3.212,3.212,0,0,1,1.3.291Z" transform="translate(-94.814 -108.283)" fill="#ea4335"/>
      <path id="Path_42029" data-name="Path 42029" d="M88.918,162.489c.252,1.953.029,3.917-2.051,4.609-4.116-.451-9.711.653-13.644,0-2.11-.35-2.607-2.786-2.3-4.609a3.063,3.063,0,0,1,1.062-.281,118.886,118.886,0,0,1,15.633-.01A3.212,3.212,0,0,1,88.918,162.489Z" transform="translate(-50.071 -108.311)" fill="#ea4335"/>
      <path id="Path_42030" data-name="Path 42030" d="M72.95,113.4H86.76c2.084.7,2.59,2.826,1.9,4.74l-17.433.072c-1.179-1.372-.013-4.42,1.725-4.815Z" transform="translate(-50.008 -75.848)" fill="#ea4335"/>
      <path id="Path_42031" data-name="Path 42031" d="M5.888,163.031l17.175-.281c1.7.31.67,4.41-1.271,4.847-4.279-.281-9.45.552-13.621.056-2.336-.278-2.564-2.7-2.28-4.625Z" transform="translate(-5.767 -108.852)" fill="#ea4335"/>
      <path id="Path_42032" data-name="Path 42032" d="M23.613,147.012H6.164c-.9-1.643-.5-4.243,1.578-4.785,1.669-.438,11-.327,13.079-.127,2.757.268,3.345,2.528,2.8,4.913Z" transform="translate(-5.71 -94.829)" fill="#ea4335"/>
      <path id="Path_42033" data-name="Path 42033" d="M12.9,113.292c2.5-.964,4.557.033,6.621,1.375a6.306,6.306,0,0,1,5.844-1.63c1.009.3.725,3.018.552,3.884a5.2,5.2,0,0,1-2.93,3.43,24.6,24.6,0,0,1-6.984.121c-2.852-.6-4.142-4.684-3.1-7.183Zm5.556,5.331A3.349,3.349,0,0,0,16.073,115c-1.408-.291-1.712.088-1.421,1.427C15.09,118.466,16.586,118.839,18.451,118.623ZM22.535,115c-2.724.562-3.289,5.308.154,3.342a2.943,2.943,0,0,0,1.267-3.168c-.258-.366-1.022-.258-1.424-.173Z" transform="translate(-10.308 -75.458)" fill="#ea4335"/>
      <path id="Path_42034" data-name="Path 42034" d="M79.483,89.987c-1.133-1.15-2.136-5.517-.82-6.161,1.516-.738,4.929.167,6.017,1.574a6.864,6.864,0,0,1,5.814-1.689c1.267.238,1,3.4.745,4.41a5.055,5.055,0,0,1-2.878,2.989,29.613,29.613,0,0,1-6.631.173A5.744,5.744,0,0,1,79.483,89.987Zm.644-4.322a3.088,3.088,0,0,0,3.43,3.819C84.506,87.159,82.406,85.277,80.126,85.666Zm9.277,0A3.011,3.011,0,0,0,85.8,88.054c-.31,1.757.353,1.754,1.764,1.274,1.715-.581,1.989-2,1.846-3.662Z" transform="translate(-54.917 -55.869)" fill="#ea4335"/>
      <path id="Path_42035" data-name="Path 42035" d="M136.659,119.243h17.695l.327.405a3.192,3.192,0,0,1,.052.683c.052.608.121,1.473-.379,1.849H137.025c-.715-.712-.238-2-.366-2.94Z" transform="translate(-94.874 -79.773)" fill="#ea4335"/>
      <path id="Path_42036" data-name="Path 42036" d="M88.949,148.5c-.127.944.35,2.228-.366,2.94H71.255l-.327-.405a3.192,3.192,0,0,1-.052-.683c-.052-.608-.121-1.473.379-1.849H88.949Z" transform="translate(-50.07 -99.257)" fill="#ea4335"/>
      <path id="Path_42037" data-name="Path 42037" d="M136.659,148.493h17.695l.327.405a3.192,3.192,0,0,1,.052.683c.052.608.121,1.473-.379,1.849H137.025c-.715-.712-.238-2-.366-2.94Z" transform="translate(-94.874 -99.25)" fill="#ea4335"/>
      <path id="Path_42038" data-name="Path 42038" d="M136.74,106.584l.229-2.832a1.275,1.275,0,0,1,.614-.118,110.988,110.988,0,0,1,16.345.036c.238.029.823.124.882.382-.1.83.3,1.93-.376,2.532Z" transform="translate(-94.955 -69.14)" fill="#ea4335"/>
      <path id="Path_42039" data-name="Path 42039" d="M136.74,135.834l.229-2.832a1.275,1.275,0,0,1,.614-.118,110.987,110.987,0,0,1,16.345.036c.238.029.823.124.882.382-.1.83.3,1.93-.376,2.532Z" transform="translate(-94.955 -88.708)" fill="#ea4335"/>
      <path id="Path_42040" data-name="Path 42040" d="M71.291,135.9c-.588-.183-.356-2.084-.333-2.659a3.452,3.452,0,0,1,1.542-.291,114.18,114.18,0,0,1,15.614.036c.238.029.823.124.882.382l-.01,2.532Z" transform="translate(-50.106 -88.772)" fill="#ea4335"/>
      <path id="Path_42041" data-name="Path 42041" d="M91.5,54.816c.983-.278,3.018,2.238,3.358,3.155.986,2.669-.51,5.21-2.94,6.37-2.7-1.238-4.42-4.308-2.754-7.2A15.41,15.41,0,0,1,91.5,54.813Z" transform="translate(-61.968 -36.626)" fill="#ea4335"/>
      <path id="Path_42042" data-name="Path 42042" d="M169.109,63.061c-.421-.448-.372-2.1-.287-2.734.722-5.334,10.191-6.526,6.856.268C174.731,62.529,170.791,64.858,169.109,63.061Zm4.942-5.315c-1.738.457-2.907,1.127-3.378,2.982-.516,2.019,2.365.281,3.008-.666.287-.421,1.1-2.234.369-2.316Z" transform="translate(-116.518 -37.378)" fill="#ea4335"/>
      <path id="Path_42043" data-name="Path 42043" d="M135.509,55.761a5.733,5.733,0,0,1,5.259,3.413c2.6,6.664-6.252,4.769-7.069-.01-.278-1.633-.163-3.315,1.806-3.4Zm3.743,5.791a3.872,3.872,0,0,0-3.658-3.917A3.524,3.524,0,0,0,139.252,61.552Z" transform="translate(-92.613 -37.278)" fill="#ea4335"/>
      <path id="Path_42044" data-name="Path 42044" d="M155.812,15.521V16.5c2.646-.294,4.116.392,3.645,3.293-.2,1.261-.869.957-1.437,1.493-.5.47-.317,1.153-1.117,1.339-1.333.307-.764-.787-1.147-1.173s-2.2.121-1.862-1.352c.32-1.375,4.135,0,3.868-1.271-.173-.836-3.525.506-3.89-2.224a2.6,2.6,0,0,1,.7-2.45c.993-.82.611-.029,1.294-1.4.846-1.7,1.764.614,2.006.83.268.242,1.519-.186,1.617.836.157,1.653-2.662.97-3.678,1.1Z" transform="translate(-106.462 -8.171)" fill="#fff"/>
      <path id="Path_42045" data-name="Path 42045" d="M22.6,122.85c-1.865.216-3.361-.157-3.8-2.192-.291-1.339.016-1.718,1.421-1.427A3.352,3.352,0,0,1,22.6,122.85Z" transform="translate(-14.46 -79.697)" fill="#fff"/>
      <path id="Path_42046" data-name="Path 42046" d="M38.53,119.253c.4-.082,1.166-.189,1.424.173a2.945,2.945,0,0,1-1.267,3.168c-3.446,1.966-2.878-2.78-.154-3.342Z" transform="translate(-26.481 -79.718)" fill="#fff"/>
      <path id="Path_42047" data-name="Path 42047" d="M105.241,89.917c.147,1.663-.131,3.077-1.846,3.662-1.411.48-2.064.425-1.764-1.274a3.053,3.053,0,0,1,3.606-2.388Z" transform="translate(-70.807 -60.121)" fill="#fff"/>
      <path id="Path_42048" data-name="Path 42048" d="M84.29,89.895c2.28-.389,4.38,1.493,3.43,3.819A3.088,3.088,0,0,1,84.29,89.895Z" transform="translate(-59.031 -60.099)" fill="#fff"/>
      <path id="Path_42049" data-name="Path 42049" d="M177.861,61.54c.728.082-.082,1.895-.369,2.316-.643.944-3.525,2.685-3.008.666.474-1.852,1.64-2.525,3.378-2.982Z" transform="translate(-120.328 -41.166)" fill="#fff"/>
      <path id="Path_42050" data-name="Path 42050" d="M143.336,65.427a3.527,3.527,0,0,1-3.658-3.917A3.874,3.874,0,0,1,143.336,65.427Z" transform="translate(-96.677 -41.146)" fill="#fff"/>
    </g>
  </g>
</svg>
