<svg id="Group_42746" data-name="Group 42746" xmlns="http://www.w3.org/2000/svg" width="60" height="60" viewBox="0 0 60 60">
  <g id="Group_42744" data-name="Group 42744">
    <path id="Path_42053" data-name="Path 42053" d="M903.689,511.219c.5.068.277-.633.244-.941-.139-1.274-.7-2.534-.809-3.811.776-.731,5.393,2.815,6.188,3.493,1.091.933,8.2,8.537,8.136,9.246-2.923,2-4.936,4.842-4.486,8.53-6.143-2.35-18.761-.262-18.851,7.975-.011.933.326,1.731.326,2.522,0,2.376-.521,5.817-.307,8.118a10.6,10.6,0,0,0,1.124,3.216c-5.588-.382-14.909-.075-17.712-6.011-4.134-8.762,2.275-20.4,7.881-27.145a39.389,39.389,0,0,1,11.94-9.943c.045,1.5-1.54,2.758-1.825,4.2.959-.506,2.882-4.1,3.429-4.415a6.384,6.384,0,0,1,2.05-.064c.974.18,2.125,4.033,2.672,5.037Z" transform="translate(-876.222 -489.566)" fill="#fbbc05"/>
    <path id="Path_42054" data-name="Path 42054" d="M932.453,465.579l1.66-2.061c.618-.69,2.421,1.364,2.623,1.851a3.842,3.842,0,0,1,.154,2.249,85.392,85.392,0,0,1-5.7,6.918c-1.237,1.233-1.615.851-3.238.555l.839-2.237-1.878,1.979c-2.245-.806-4.145.274-6.259.409-1.7-2.091-3.744-4.014-5.344-6.176-.783-1.057-1.458-1.529-1.061-3,.334-1.237,2.747-2.751,3.98-3.028l2.695,4.778-1.983-7.364c2.208-2.586,13.612-2.185,15.227-.064.547.716-1.836,4.066-1.716,5.187Z" transform="translate(-900.219 -458.649)" fill="#fbbc05"/>
    <path id="Path_42055" data-name="Path 42055" d="M995.989,547.468a17.805,17.805,0,0,1,4.906.266c2.661.536,7.511,2.83,5.509,6.188-2.608,4.381-15.021,4.377-17.791.169s4.25-6.371,7.379-6.622Zm-1.132,1.113c-1.776.21-7.143,1.754-4.58,4.126,2.511,2.324,11.562,2.256,14.189.124,1.289-1.046.776-2.061-.409-2.931-2.065-1.514-6.724-1.615-9.2-1.319Z" transform="translate(-946.875 -514.937)" fill="#fbbc05"/>
    <path id="Path_42056" data-name="Path 42056" d="M1006.746,589.118c1.087,4.227-4.823,5.929-8.013,6.15-3.2.225-10.426-.836-10.719-4.936-.022-.307.06-1.447.6-1.214,3.392,3.572,10.4,3.856,14.759,2.095C1004.715,590.67,1005.494,589.665,1006.746,589.118Z" transform="translate(-946.895 -541.43)" fill="#fbbc05"/>
    <path id="Path_42057" data-name="Path 42057" d="M1006.747,604.806c1.117,4.284-4.8,5.918-8.013,6.154-3.234.236-10.464-.806-10.719-4.936-.019-.311.056-1.443.6-1.214,3.305,3.658,10.437,3.86,14.755,2.091l3.377-2.091Z" transform="translate(-946.897 -551.241)" fill="#fbbc05"/>
    <path id="Path_42058" data-name="Path 42058" d="M1006.3,573.49l.555.172c1.061,5.1-7.154,6.244-10.782,5.948-3.058-.251-9.212-2.039-7.627-6.12,3.976,4.272,13.039,4.434,17.442.839a1.241,1.241,0,0,0,.416-.839Z" transform="translate(-947.004 -531.41)" fill="#fbbc05"/>
    <path id="Path_42059" data-name="Path 42059" d="M943.231,575.031c2.792-.375,11.547.386,9.692,4.895-1.559,3.785-12.735,3.8-14.74.27C936.432,577.122,940.847,575.353,943.231,575.031Zm-.281.839c-5.352.716-4.808,4.16.491,4.685,1.48.146,10.422.015,8.028-3.238-1.252-1.705-6.592-1.7-8.522-1.443Z" transform="translate(-915.107 -532.364)" fill="#fbbc05"/>
    <path id="Path_42060" data-name="Path 42060" d="M938.118,608.574c3.8,3.362,11.082,3.658,14.755,0,1.6,2.56-2.249,4.235-4.287,4.681-3.287.72-11.476.2-10.468-4.688Z" transform="translate(-915.264 -553.611)" fill="#fbbc05"/>
    <path id="Path_42061" data-name="Path 42061" d="M952.489,595.89c1.214.727.364,2.312-.431,3.077-2.788,2.676-11.131,2.653-13.642-.4-.682-.828-1.139-1.705-.412-2.668,3.234,3.617,10.258,3.583,14.024.8a.974.974,0,0,0,.457-.8Z" transform="translate(-915.014 -545.683)" fill="#fbbc05"/>
    <path id="Path_42062" data-name="Path 42062" d="M997.553,550.318c2.477-.3,7.136-.195,9.2,1.319,1.184.87,1.694,1.885.409,2.931-2.627,2.136-11.678,2.2-14.189-.124C990.41,552.072,995.776,550.528,997.553,550.318Zm5.933,1.915-6.431-.592c-.3,1.2.375,1,.806,1.567.5.656.371,1.248,1.589,1.51l-.423-1.675,4.5.277Z" transform="translate(-949.571 -516.642)" fill="#fff"/>
    <path id="Path_42063" data-name="Path 42063" d="M945.3,577.2c1.93-.259,7.267-.259,8.522,1.443,2.395,3.253-6.551,3.384-8.028,3.238-5.3-.525-5.846-3.965-.491-4.685Zm5.127,2.447-.176-1.087-4.883-.315c-.341.33,1.259,2.755,1.968,2.234l-.562-1.113,3.654.277Z" transform="translate(-917.463 -533.659)" fill="none"/>
    <path id="Path_42064" data-name="Path 42064" d="M1011.307,554.662l.037,1.087-4.5-.277.424,1.675c-1.218-.262-1.083-.855-1.589-1.51-.431-.562-1.106-.367-.806-1.567l6.431.592Z" transform="translate(-957.393 -519.063)" fill="#fbbc05"/>
    <path id="Path_42065" data-name="Path 42065" d="M956.731,581.608l-3.654-.277.562,1.113c-.708.517-2.309-1.9-1.968-2.234l4.883.315.176,1.087Z" transform="translate(-923.761 -535.601)" fill="#fbbc05"/>
  </g>
</svg>
