<svg xmlns="http://www.w3.org/2000/svg" width="60" height="60" viewBox="0 0 60 60">
  <g id="Group_38578" data-name="Group 38578" transform="translate(-15438 -22407.354)">
    <rect id="Rectangle_20346" data-name="Rectangle 20346" width="60" height="60" transform="translate(15438 22407.354)" fill="none"/>
    <g id="Group_38560" data-name="Group 38560" transform="translate(15437.75 22407.51)">
      <path id="Path_40285" data-name="Path 40285" d="M57.227,21.011H3.273a2.023,2.023,0,0,0,0,4.047H57.227a2.023,2.023,0,1,0,0-4.047Z" transform="translate(0 33.142)" fill="#fbbc05" fill-rule="evenodd"/>
      <path id="Path_40286" data-name="Path 40286" d="M34.273,56.176V6.207A4.724,4.724,0,0,0,27.8,1.826L6.217,10.458A4.721,4.721,0,0,0,3.25,14.842V56.176A2.022,2.022,0,0,0,5.273,58.2H32.25a2.023,2.023,0,0,0,2.023-2.023Zm-20.907-6.07H24.157a2.023,2.023,0,1,0,0-4.047H13.366a2.023,2.023,0,0,0,0,4.047Zm0-9.442H24.157a2.023,2.023,0,1,0,0-4.047H13.366a2.023,2.023,0,0,0,0,4.047Zm0-9.442H24.157a2.023,2.023,0,0,0,0-4.047H13.366a2.023,2.023,0,0,0,0,4.047Zm0-9.442H24.157a2.023,2.023,0,1,0,0-4.047H13.366a2.023,2.023,0,0,0,0,4.047Zm23.6-5.4V56.176a4.693,4.693,0,0,1-.453,2.023H48.436a2.023,2.023,0,0,0,2.023-2.023V21.106a4.721,4.721,0,0,0-4.721-4.721Z" transform="translate(3.395 0)" fill="#fbbc05" fill-rule="evenodd"/>
    </g>
  </g>
</svg>
