<svg xmlns="http://www.w3.org/2000/svg" width="60" height="60" viewBox="0 0 60 60">
  <g id="Group_38579" data-name="Group 38579" transform="translate(-15534 -22407)">
    <rect id="Rectangle_20347" data-name="Rectangle 20347" width="60" height="60" transform="translate(15534 22407)" fill="none"/>
    <g id="Group_38558" data-name="Group 38558" transform="translate(15533 22406)">
      <path id="Path_40283" data-name="Path 40283" d="M31,2A29,29,0,1,0,60,31,29,29,0,0,0,31,2ZM19.211,7.444l1.573,1.091a2.547,2.547,0,0,1,.82.946l.4.791a2.527,2.527,0,0,0,2.262,1.4h2.812A2.53,2.53,0,0,1,29.6,14.2v.05a2.526,2.526,0,0,1-1.4,2.262l-6.745,3.375a2.324,2.324,0,0,0-.273.157l-3.452,2.3a2.545,2.545,0,0,0-.861.974l-.513,1.031a2.5,2.5,0,0,0,0,2.261,2.532,2.532,0,0,1-.476,2.921l-.075.076a2.528,2.528,0,0,1-3.09.38l-4.412-2.65a2.534,2.534,0,0,1-1.1-1.37L6.125,22.714c-.05,0-.086-.016-.132-.017A26.4,26.4,0,0,1,19.212,7.444ZM33.743,40.389a1.7,1.7,0,0,1-.087.539l-1.167,3.5a1.7,1.7,0,0,1-.411.667L29.969,47.2a1.7,1.7,0,0,0-.467.873l-1.116,5.579a1.7,1.7,0,0,1-.911,1.186l-.915.459a1.714,1.714,0,0,1-1.971-.32l-1.7-1.7a1.741,1.741,0,0,1-.32-.444L21.5,50.686a1.723,1.723,0,0,1-.179-.763V44.484a1.714,1.714,0,0,0-.944-1.528l-1.413-.705a1.7,1.7,0,0,1-.659-.58l-2.224-3.336a1.7,1.7,0,0,1-.287-.946V36.2a1.714,1.714,0,0,1,.944-1.526l1.309-.659a1.7,1.7,0,0,0,.763-.763l.659-1.309A1.714,1.714,0,0,1,20.988,31h2.381a1.706,1.706,0,0,1,1.207.5l.381.381a1.714,1.714,0,0,0,1.207.5h.353A1.714,1.714,0,0,1,28.225,34.1a1.714,1.714,0,0,0,.943,1.526l3.638,1.818a1.714,1.714,0,0,1,.943,1.528ZM40.69,15.332a2.352,2.352,0,0,1,.508-.762l2.361-2.36a2.361,2.361,0,0,1,.608-.439l2.478-1.239a2.311,2.311,0,0,1,.685-.2,26.439,26.439,0,0,1,6.918,8.243H53.082a2.345,2.345,0,0,1-1.657-.686l-.285-.285a2.346,2.346,0,0,0-1.657-.687h-1.79a2.34,2.34,0,0,0-1.055.248l-2.323,1.163a2.342,2.342,0,0,1-1.055.247h-.418a2.344,2.344,0,0,1-2.164-3.239Zm9.938,33.225-.171-.421a2.776,2.776,0,0,1-.141-.874V44.219a2.768,2.768,0,0,0-.291-1.235l-2.18-4.358a2.768,2.768,0,0,1-.291-1.235v-.4a2.762,2.762,0,0,0-4-2.47l-.945.473a2.768,2.768,0,0,1-1.234.291h-.12a2.768,2.768,0,0,1-2.621-1.89l-.609-1.828a2.768,2.768,0,0,1-.142-.874V28.473a2.76,2.76,0,0,1,1.23-2.3L41.631,24.5a2.748,2.748,0,0,1,.862-.381l4.279-1.07a2.768,2.768,0,0,1,1.545.059l2.953.985a2.78,2.78,0,0,0,.875.142h4.309a26.085,26.085,0,0,1-5.826,24.323Z" transform="translate(0)" fill="#ea4335"/>
    </g>
  </g>
</svg>
