<svg xmlns="http://www.w3.org/2000/svg" width="60" height="60" viewBox="0 0 60 60">
  <g id="Group_38577" data-name="Group 38577" transform="translate(-15351.451 -22407)">
    <rect id="Rectangle_20345" data-name="Rectangle 20345" width="60" height="60" transform="translate(15351.451 22407)" fill="none"/>
    <g id="Group_38562" data-name="Group 38562" transform="translate(15318.491 22408)">
      <path id="Path_40288" data-name="Path 40288" d="M160.439,16.405a10.42,10.42,0,0,0,.437-1.63c1.7-10.23-3.331-10.585-3.331-10.585a7.792,7.792,0,0,0-3.036-2.823A10.314,10.314,0,0,0,148.272.044a9.423,9.423,0,0,0-2.481.473,11.01,11.01,0,0,0-2.729,1.394,14.235,14.235,0,0,0-2.812,2.327,11.252,11.252,0,0,0-3.036,5.328,11.582,11.582,0,0,0,.024,5.21,9.546,9.546,0,0,0,.437,1.63c-1-.095-2.2.484-1.075,4.442.8,2.894,1.559,3.7,2.138,3.745a12.261,12.261,0,0,0,7.537,9.344,8.3,8.3,0,0,0,5.529-.012,12.461,12.461,0,0,0,7.561-9.333c.579-.047,1.335-.862,2.15-3.745,1.122-3.957-.071-4.536-1.075-4.442Z" transform="translate(-86.103 0)" fill="#34a853"/>
      <path id="Path_40289" data-name="Path 40289" d="M82.759,284.037a38.065,38.065,0,0,1-11.116-5.068l-3.887,12.3-.732,2.315-.012-.035-.638,1.961-2.056-5.824c5.044-7.041-1.016-6.97-1.359-6.958-.343-.012-6.4-.083-1.359,6.958l-2.056,5.824-.638-1.961-.012.035-.732-2.315-3.887-12.3a38.065,38.065,0,0,1-11.116,5.068c-4.572,1.158-4.8,6.438-4.607,9.061-.024,0,.248,3.544.508,5.1,0,0,8.931,5.8,23.887,5.812S86.835,298.2,86.835,298.2c.272-1.559.532-5.1.532-5.1C87.555,290.487,87.331,285.206,82.759,284.037Z" transform="translate(0 -246.013)" fill="#34a853"/>
    </g>
  </g>
</svg>
