<svg xmlns="http://www.w3.org/2000/svg" width="60" height="60" viewBox="0 0 60 60">
  <g id="Group_38576" data-name="Group 38576" transform="translate(-1109.999 -5775.666)">
    <rect id="Rectangle_20344" data-name="Rectangle 20344" width="60" height="60" transform="translate(1109.999 5775.666)" fill="none"/>
    <g id="Group_38561" data-name="Group 38561" transform="translate(1110.999 5738.833)">
      <path id="Path_40287" data-name="Path 40287" d="M53.167,49.916H41.083V47.5a4.838,4.838,0,0,0-4.833-4.833H21.75A4.838,4.838,0,0,0,16.917,47.5v2.417H4.833A4.838,4.838,0,0,0,0,54.749V62a4.838,4.838,0,0,0,4.833,4.833H24.167V65.624a1.208,1.208,0,0,1,1.208-1.208h7.25a1.208,1.208,0,0,1,1.208,1.208v1.208H53.167A4.838,4.838,0,0,0,58,62v-7.25A4.838,4.838,0,0,0,53.167,49.916Zm-16.917,0H21.75V47.5h14.5Zm21.08,18.22a1.21,1.21,0,0,0-1.267.119,4.771,4.771,0,0,1-2.9.994H33.833v3.625a1.208,1.208,0,0,1-1.208,1.208h-7.25a1.208,1.208,0,0,1-1.208-1.208V69.249H4.833a4.772,4.772,0,0,1-2.9-.994A1.208,1.208,0,0,0,0,69.219V86.166A4.838,4.838,0,0,0,4.833,91H53.167A4.838,4.838,0,0,0,58,86.166V69.219a1.208,1.208,0,0,0-.67-1.082Z" transform="translate(0)" fill="#4684f5"/>
    </g>
  </g>
</svg>
