<svg xmlns="http://www.w3.org/2000/svg" width="60" height="45" viewBox="0 0 60 45">
  <g id="Group_42750" data-name="Group 42750" transform="translate(15441.389 1418.21)">
    <g id="SSY" transform="translate(-15441.389 -1418.21)">
      <path id="Path_42571" data-name="Path 42571" d="M846.816,479.586l28.778-.046a2.579,2.579,0,0,1,2.413,2.331l-.167,40.947a3.141,3.141,0,0,1-2.652,1.485c-8.783.756-18.687-.587-27.587,0-1.687-.155-2.759-1.028-2.82-2.747V481.876a2.75,2.75,0,0,1,2.042-2.287Zm.371,1.988-.312.3v39.872a3.5,3.5,0,0,0,.521.509h28.2l.312-.3V481.882l-.312-.3H847.187Z" transform="translate(-844.78 -479.54)" fill="#ea4335"/>
      <path id="Path_42572" data-name="Path 42572" d="M1060.231,558.669a29.772,29.772,0,0,1,4.962-.039,1.245,1.245,0,0,1,.94.94l.017,21.7a1.211,1.211,0,0,1-.957,1.132,29.766,29.766,0,0,1-4.962-.039c-.667-.148-.826-.552-.934-1.152.332-6.724-.614-14.177-.058-20.818.064-.764.128-1.528.993-1.721Z" transform="translate(-1006.15 -537.662)" fill="#ea4335"/>
      <path id="Path_42573" data-name="Path 42573" d="M1004.09,573.912l.215,18.575a1.329,1.329,0,0,1-.466.577c-.692.413-5.193.377-6.072-.22l-.067-18.64a.7.7,0,0,1,.432-.4c.6-.279,5.567-.285,5.958.1Z" transform="translate(-960.156 -548.515)" fill="#ea4335"/>
      <path id="Path_42574" data-name="Path 42574" d="M1035.554,588.862l.215,14.406a1.33,1.33,0,0,1-.466.577c-.692.413-5.193.376-6.072-.22l-.061-14.459a.779.779,0,0,1,.374-.46c.508-.245,5.656-.2,6.008.153Z" transform="translate(-983.444 -559.294)" fill="#ea4335"/>
      <path id="Path_42575" data-name="Path 42575" d="M1000.475,536.473l-7.511,7.843-8.853-5.519-5.582,5.276c-1.395.945-2.451-.4-1.411-1.641,2.956-2.675,2.865-2.844,5.7-5.552.5-.474,1.024-.842,1.724-.457l8.086,5.469,6.384-7.193c-.446-.215-1.012-.036-1.52-.148-.867-.19-1.434-1.266-.692-1.852a21.416,21.416,0,0,1,4.833-.2.959.959,0,0,1,.742.3,19.081,19.081,0,0,1,.084,5.341c-.647,1.322-2.622-.332-1.986-1.671Z" transform="translate(-943.32 -518.202)" fill="#ea4335"/>
      <path id="Path_42577" data-name="Path 42577" d="M852.6,487.013h28.407l.312.3v39.965l-.312.3h-28.2a3.5,3.5,0,0,1-.522-.507V487.314l.312-.3Zm2.968,2.476-.77.876c.192,2.6-.273,5.569-.02,8.121.064.627.145.968.789,1.264l22.316.052.826-.415c-.073-2.8.449-6.317.114-9.041-.05-.415-.059-.561-.48-.751l-22.779-.106Zm.209,12.174a1.219,1.219,0,0,0-.982.873,30.02,30.02,0,0,0-.014,4.674,1.2,1.2,0,0,0,.642,1c.586.25,5.428.22,5.849-.193.457-.45.151-5.037.106-6-.363-.532-4.85-.515-5.6-.355Zm8.78.008c-.471.084-.9.16-.993.656a41.559,41.559,0,0,0,.106,5.585c.357.589,5.475.562,6.072.214a1.392,1.392,0,0,0,.4-.423,29.042,29.042,0,0,0,.12-4.975c-.106-.779-.583-1.023-1.364-1.109a23.875,23.875,0,0,0-4.34.054Zm14,.2c-1.116-.3-5.612-.608-6.231.241-.273.374-.3,4.4-.2,5.1a1.157,1.157,0,0,0,1.149,1.115c.778.1,4.931.095,5.341-.309.315-.309.268-4.337.212-5.086a1.869,1.869,0,0,0-.271-1.058Zm-23.5,8.52c-.416.4-.421,5.59.05,6.043.329.315,5.681.323,6.083.014a.922.922,0,0,0,.3-.721c.092-.681.064-4.98-.2-5.3s-.594-.263-.948-.3c-.773-.073-4.928-.089-5.288.263Zm14.938,0c-.363-.353-4.516-.336-5.288-.263-.354.033-.692-.019-.948.3a25.938,25.938,0,0,0-.2,5.3.913.913,0,0,0,.3.721c.34.26,4.739.277,5.464.2.862-.1.87-.578.937-1.321s.1-4.573-.268-4.931Zm2.4,0c-.416.4-.421,5.59.05,6.043.329.315,5.681.323,6.083.014a.921.921,0,0,0,.3-.721c.092-.681.064-4.98-.2-5.3s-.594-.263-.948-.3c-.773-.073-4.928-.089-5.288.263Zm-16.612,8.11a1.219,1.219,0,0,0-.982.873,30.022,30.022,0,0,0-.014,4.674,1.2,1.2,0,0,0,.642,1,27.946,27.946,0,0,0,4.909.109c.72-.081,1.068-.174,1.157-.906a40.069,40.069,0,0,0-.114-5.39c-.17-.282-.72-.372-1.043-.407a26.52,26.52,0,0,0-4.555.046Zm8.565,0c-.41.087-.7.247-.778.664a41.487,41.487,0,0,0,.1,5.582c.34.561,4.4.5,5.23.407.77-.087,1.255-.325,1.364-1.109.095-.692.07-4.722-.2-5.1a1.74,1.74,0,0,0-1.16-.5,26.247,26.247,0,0,0-4.555.049Zm14.213.206c-.346-.336-4.56-.353-5.288-.26a1.153,1.153,0,0,0-1.149,1.115,28.636,28.636,0,0,0,0,4.484,1.165,1.165,0,0,0,1.149,1.115c.778.1,4.931.095,5.341-.309.206-.2.184-.353.215-.6.089-.749.081-5.2-.271-5.541Z" transform="translate(-850.011 -484.927)" fill="#fff"/>
      <path id="Path_42578" data-name="Path 42578" d="M861.813,496.15l22.779.109c.421.2.427.346.48.773.335,2.8-.187,6.418-.114,9.3l-.826.427-22.316-.053c-.644-.3-.725-.655-.789-1.3-.257-2.625.212-5.676.02-8.351l.77-.9Z" transform="translate(-856.438 -491.517)" fill="#ea4335"/>
      <path id="Path_42579" data-name="Path 42579" d="M862.011,602.783a25.268,25.268,0,0,1,4.555-.047c.324.036.873.128,1.043.418a42.349,42.349,0,0,1,.114,5.542c-.089.753-.446.851-1.157.932a27.749,27.749,0,0,1-4.909-.112,1.246,1.246,0,0,1-.642-1.026,32.1,32.1,0,0,1,.014-4.806,1.231,1.231,0,0,1,.982-.9Z" transform="translate(-856.427 -569.465)" fill="#ea4335"/>
      <path id="Path_42580" data-name="Path 42580" d="M929.607,603.066c.351.351.36,4.931.271,5.7-.031.257-.011.413-.215.619-.413.418-4.563.418-5.341.318a1.182,1.182,0,0,1-1.149-1.146,30.274,30.274,0,0,1,0-4.61,1.18,1.18,0,0,1,1.149-1.146c.7-.089,4.94-.078,5.288.268Z" transform="translate(-901.499 -569.533)" fill="#ea4335"/>
      <path id="Path_42581" data-name="Path 42581" d="M862.018,540.769c.753-.164,5.241-.181,5.6.365.045.987.351,5.7-.106,6.167-.421.424-5.263.457-5.849.2a1.245,1.245,0,0,1-.641-1.026,32.109,32.109,0,0,1,.014-4.806,1.232,1.232,0,0,1,.982-.9Z" transform="translate(-856.435 -524.118)" fill="#ea4335"/>
      <path id="Path_42582" data-name="Path 42582" d="M893.589,540.72a22.983,22.983,0,0,1,4.34-.056c.781.089,1.258.34,1.364,1.141a30.687,30.687,0,0,1-.12,5.115,1.415,1.415,0,0,1-.4.435c-.6.357-5.715.385-6.072-.22a44.412,44.412,0,0,1-.106-5.743c.1-.519.522-.588.993-.675Z" transform="translate(-879.38 -524.06)" fill="#ea4335"/>
      <path id="Path_42583" data-name="Path 42583" d="M893.37,602.789a25.273,25.273,0,0,1,4.555-.05,1.717,1.717,0,0,1,1.16.51c.273.385.3,4.53.2,5.241-.106.809-.594,1.054-1.364,1.141-.831.095-4.889.156-5.23-.418a43.855,43.855,0,0,1-.1-5.74C892.67,603.043,892.96,602.879,893.37,602.789Z" transform="translate(-879.376 -569.468)" fill="#ea4335"/>
      <path id="Path_42584" data-name="Path 42584" d="M929.708,540.979a1.992,1.992,0,0,1,.271,1.088c.056.77.1,4.912-.212,5.23-.413.418-4.563.418-5.341.318a1.183,1.183,0,0,1-1.149-1.146c-.089-.7-.07-4.856.2-5.241.619-.873,5.112-.552,6.231-.248Z" transform="translate(-901.603 -524.113)" fill="#ea4335"/>
      <path id="Path_42585" data-name="Path 42585" d="M861.4,572.4c.363-.363,4.516-.346,5.288-.271.354.033.692-.019.948.3a27.418,27.418,0,0,1,.2,5.453.951.951,0,0,1-.3.742c-.4.315-5.754.31-6.083-.014-.471-.466-.466-5.8-.05-6.214Z" transform="translate(-856.539 -547.023)" fill="#ea4335"/>
      <path id="Path_42586" data-name="Path 42586" d="M898.994,572.4c.368.368.337,4.3.268,5.07s-.075,1.258-.937,1.358c-.722.084-5.124.067-5.464-.2a.96.96,0,0,1-.3-.742c-.092-.7-.064-5.121.2-5.453s.594-.271.948-.3c.773-.075,4.928-.092,5.288.271Z" transform="translate(-879.351 -547.023)" fill="#ea4335"/>
      <path id="Path_42587" data-name="Path 42587" d="M923.557,572.4c.363-.363,4.516-.346,5.288-.271.354.033.692-.019.948.3a27.4,27.4,0,0,1,.2,5.453.951.951,0,0,1-.3.742c-.4.315-5.754.31-6.083-.014-.471-.466-.466-5.8-.05-6.214Z" transform="translate(-901.616 -547.023)" fill="#ea4335"/>
    </g>
  </g>
</svg>
