<svg xmlns="http://www.w3.org/2000/svg" width="45" height="60" viewBox="0 0 45 60">
  <g id="Group_42768" data-name="Group 42768" transform="translate(12243 -917)">
    <g id="step_up_sip1" data-name="step up sip1" transform="translate(-13124.25 464.409)">
      <path id="Path_42846" data-name="Path 42846" d="M980.733,531.16v32.372l-.39.387h-13.2l-.39-.387V531.547l.39-.387Z" transform="translate(-56.091 -52.875)" fill="#4285f4"/>
      <path id="Path_42847" data-name="Path 42847" d="M937.71,575.24c-.214,1.868.293,3.712.273,5.559-.034,2.99-.1,6.028-.28,9-.059,1.019.345,2.334-.121,2.98H924.376l-.324-.376a7.26,7.26,0,0,0,.207-2.6c-.176-2.976-.245-6.011-.28-9-.021-1.847.487-3.687.273-5.559h13.465Z" transform="translate(-28.029 -81.736)" fill="#4285f4"/>
      <path id="Path_42848" data-name="Path 42848" d="M895.233,597.65v9.415l-.39.387h-13.2l-.39-.387V597.65Z" transform="translate(0 -96.408)" fill="#4285f4"/>
      <path id="Path_42849" data-name="Path 42849" d="M978.437,455.045c1.357,1.485.438,2.924-.96,3.891-3.163,2.186-11.874,2.251-14.719-.525-3.536-3.453,3.712-5.559,6.063-5.773,2.6-.238,7.765.383,9.616,2.41Zm-7.482-1.3c-.6-.259-3.052.839-3.049,1.6.646,1.554,2.686,1.806,4.15,2.2-.546,1.5-3.926-.646-4.14.387.114.894,1.205.746,1.8,1.05.276.142.121.9,1.126.618.186-.052.186-.411.376-.49.608-.259,2.141-.435,2.141-1.436,0-1.519-3.491-1.16-4.15-2.324,1.029-.811,2.213.041,3.366-.128l-.152-.8C971.684,454.583,971.045,453.781,970.955,453.744Z" transform="translate(-52.853)" fill="#4285f4"/>
      <path id="Path_42850" data-name="Path 42850" d="M932.241,500.53v6.449c-.3.1-1.036-.114-1.036-.387v-4L904.62,528.866l-.86-.352,26.672-26.951h-4.661V500.53h6.474Z" transform="translate(-14.79 -32.104)" fill="#4285f4"/>
      <path id="Path_42851" data-name="Path 42851" d="M979.3,471.39c.583,4.658-7.25,5.186-10.482,4.9-2.441-.217-7.547-1.6-6.481-4.9,4.744,3.5,12.115,3.239,16.959,0Z" transform="translate(-53.107 -12.309)" fill="#4285f4"/>
      <path id="Path_42852" data-name="Path 42852" d="M979.375,481.1c.283,4.509-7.271,4.927-10.482,4.64-2.358-.211-7.368-1.46-6.481-4.637,4.575,3.632,12.284,3.439,16.959,0Z" transform="translate(-53.183 -18.915)" fill="#4285f4"/>
      <path id="Path_42853" data-name="Path 42853" d="M924.642,628.9H881.25c.248-1.512,2.834-.518,3.991-.5,11.582.142,23.308.142,34.893,0C921.381,628.386,924.311,627.357,924.642,628.9Z" transform="translate(0 -116.314)" fill="#4285f4"/>
      <path id="Path_42854" data-name="Path 42854" d="M982.529,455.858c.086.038.725.839,1.471.673l.152.8c-1.153.169-2.337-.68-3.366.128.659,1.164,4.147.8,4.15,2.324,0,1-1.533,1.181-2.141,1.436-.186.079-.19.438-.376.49-1,.28-.849-.477-1.126-.618-.6-.3-1.688-.155-1.8-1.05.214-1.036,3.6,1.112,4.14-.387-1.467-.39-3.5-.642-4.15-2.2,0-.76,2.451-1.854,3.049-1.6Z" transform="translate(-64.426 -2.115)" fill="#fff"/>
    </g>
  </g>
</svg>
