<svg id="Group_42780" data-name="Group 42780" xmlns="http://www.w3.org/2000/svg" width="60" height="60" viewBox="0 0 60 60">
  <path id="Path_42712" data-name="Path 42712" d="M806.862,397.134a10.845,10.845,0,0,0,0,1.669,10.256,10.256,0,0,0,0,1.37c0,.175-.012.126,0,.3l.008.175s-.01.322-.021.49-.33.072-.33.072c.365-.461.324.049.322.169a1.683,1.683,0,0,1,.07.487c.089,2.538-.16,5.126-.059,7.671a2.905,2.905,0,0,1-2.877,2.184H761.1a2.87,2.87,0,0,1-2.892-2.839V354.448a2.885,2.885,0,0,1,3-2.728h42.873a2.831,2.831,0,0,1,2.779,2.394l-.006,43.02Zm-4.335-41.487-39.777-.083-.2.245.033,21.292.25.2,39.61-.033.174-.275.056-20.767-.145-.582Zm-35.5,25.6a2.34,2.34,0,0,0-1.775,1.819c.174,2.288-.268,4.986-.01,7.225a2.245,2.245,0,0,0,1.979,1.953c2.715.261,5.863-.209,8.627,0a2.251,2.251,0,0,0,1.873-2.057,48.951,48.951,0,0,0,0-7.016,2.3,2.3,0,0,0-1.984-1.947c-2.7-.286-5.945.193-8.7.027Zm22.226,0a2.388,2.388,0,0,0-1.885,2.156,43.69,43.69,0,0,0-.011,6.553,2.3,2.3,0,0,0,2.091,2.288c2.708.236,5.764-.185,8.509,0a2.286,2.286,0,0,0,1.988-2.278,46.473,46.473,0,0,0-.006-6.57,2.4,2.4,0,0,0-2.1-2.173c-2.653-.294-5.878.2-8.591.027Zm-12.144,15.6a2.793,2.793,0,0,0-1.6-.712c-2.6-.227-5.534.18-8.169,0a2.329,2.329,0,0,0-2.1,2.055c-.2,2.27.165,4.829,0,7.13a2.463,2.463,0,0,0,2.437,1.948,59.25,59.25,0,0,0,7.492,0c1.264-.1,2.422-.7,2.552-2.058a49.4,49.4,0,0,0,0-7.128,2.2,2.2,0,0,0-.608-1.239Zm12.26-.678a2.384,2.384,0,0,0-2,2.153,44.171,44.171,0,0,0-.011,6.664,2.428,2.428,0,0,0,2.546,2.287,58.749,58.749,0,0,0,7.6-.006c2.478-.221,2.484-1.966,2.445-3.953-.029-1.488.051-3.136-.006-4.557a2.441,2.441,0,0,0-2.212-2.615c-2.619-.263-5.694.168-8.36.028Zm13.8,2.091Zm1.581.551Zm-4.241-1.669h0Zm3.305,4.215-3.412-.654S803.516,400.675,803.818,401.348Zm-3.133-.2C800.2,401.124,800.36,399.909,800.685,401.15Zm5.355-1.085a.3.3,0,0,0-.295-.016c-.429.6.608-1.125.645-.975.053.2-.736,1.968-.615,2.186l.366-.25-.4.412.315-.887.263-.062c.4-.166-.86,1.348-.936,1.3C805.339,401.747,806.06,400.077,806.041,400.065Zm-3.541,1.186c.239.239-.146.116-.263-.18l.431-.151S801.786,400.538,802.5,401.251Zm2.889-1-.32.185-.02.927-.63-1.736.969.623Z" transform="translate(-758.21 -351.72)" fill="#ea4335"/>
  <path id="Path_42713" data-name="Path 42713" d="M1095.855,433.3c.3-.488,2.045,1.466,2.06.828.008-.308-.432-.435-.691-.389.1-.421.767.178.685-.329l.228,1.169c-.148.119-1.278-.846-1.152-.69.141.174.548.052.581.293-.292.007-.549-.172-.741.109l-.274-.837-.7-.155,0-3.734.034-.022c.1-.312.039.231-.034.022.009-.463-.012-1.268,0-1.73.117-4.712.126-9.43.1-14.153.537-6.132-.266-12.8.228-18.9a4.267,4.267,0,0,1,6.473-3.278c2.443,1.457,2.006,4.4,1.979,6.823-.078,7.086-.281,14.233-.353,21.317-.046,4.529.284,9.243-.231,13.7a5.879,5.879,0,0,0,.047,1.7,7.965,7.965,0,0,0,.076,2.233l-8.051-.106-.394-.171.114-3.7Zm3,1.279c-.141-.183-.7-1.6-.718-1.449-.052.393.549-1.183.513-.778.487.1-.54,1.276,0,1.276s-.915-.668-.428-.766c-.017-.4,1.082.647.633.453l-.49.1.49,1.172Zm1.783-1.491c-.359-.1.982.153.815.273-.747-.211-1.12.469-.578.987l-4.5-1.337,4.26.077Zm2.85,0c-.531-.357.181.722.124,1.04.336.06-.807-.049-.513-.069.587-.041-1.637-2.2-1.139-2.275Zm-3.211.346a.925.925,0,0,0-.885-.025c-.082.508.581-.093.685.329l-.669.127-.017.538-2.565-.9,3.45-.065Z" transform="translate(-1044.692 -384.923)" fill="#ea4335"/>
  <path id="Path_42714" data-name="Path 42714" d="M1106.272,712.188l-1.159,2.034c-1.755.017-3.5-.155-5.27-.114l-1.1-1.978,7.532.056Z" transform="translate(-1047.236 -658.81)" fill="#ea4335"/>
  <path id="Path_42715" data-name="Path 42715" d="M1113.828,732.114l-2,3.42A15.843,15.843,0,0,1,1109.95,732Z" transform="translate(-1056.732 -675.657)" fill="#ea4335"/>
  <path id="Path_42720" data-name="Path 42720" d="M952.359,650.547c2.682.145,5.778-.3,8.411-.029A2.491,2.491,0,0,1,963,653.2c.058,1.457-.023,3.146.006,4.672.04,2.037.035,3.828-2.46,4.053a58.025,58.025,0,0,1-7.646.006,2.461,2.461,0,0,1-2.562-2.344,46.131,46.131,0,0,1,.011-6.832,2.428,2.428,0,0,1,2.014-2.207Zm.227,1.024a1.291,1.291,0,0,0-1.1.949c.189,2.3-.274,5.055-.009,7.3a1.056,1.056,0,0,0,.969.971c2.683-.192,5.694.246,8.337,0,.846-.078,1.126-.628,1.2-1.427a46.676,46.676,0,0,0,0-6.508c-.1-.873-.569-1.215-1.427-1.311-2.457-.277-5.446.186-7.959.027Z" transform="translate(-921.188 -606.496)" fill="#fff"/>
  <path id="Path_42721" data-name="Path 42721" d="M816.3,651.287a2.274,2.274,0,0,1,.612,1.27,51.823,51.823,0,0,1,0,7.307,2.458,2.458,0,0,1-2.568,2.11,58.522,58.522,0,0,1-7.538,0,2.49,2.49,0,0,1-2.452-2c.163-2.359-.208-4.982,0-7.31a2.368,2.368,0,0,1,2.115-2.107c2.652.18,5.606-.237,8.219,0a2.79,2.79,0,0,1,1.609.73Zm-9.8.329a1.262,1.262,0,0,0-1.114,1.168c-.257,2.139.2,4.772,0,6.964a1.263,1.263,0,0,0,1.083,1.083c2.647-.19,5.617.243,8.222,0a1.243,1.243,0,0,0,1.2-1.086c-.161-2.2.205-4.684,0-6.853a1.341,1.341,0,0,0-1.427-1.311C811.939,651.361,809.066,651.736,806.5,651.615Z" transform="translate(-797.285 -606.541)" fill="#fff"/>
  <path id="Path_42722" data-name="Path 42722" d="M952.254,549.979c2.731.175,5.974-.329,8.644-.027a2.432,2.432,0,0,1,2.108,2.227,48.777,48.777,0,0,1,.006,6.735,2.328,2.328,0,0,1-2,2.335c-2.763-.186-5.837.245-8.562,0a2.341,2.341,0,0,1-2.1-2.346,45.414,45.414,0,0,1,.011-6.718,2.439,2.439,0,0,1,1.9-2.21Zm.228,1.027a1.231,1.231,0,0,0-1,1.054c-.263,2.215.205,4.926,0,7.2a1.163,1.163,0,0,0,1.086.968c2.6-.2,5.553.251,8.11,0,.993-.1,1.231-.612,1.31-1.543a46.124,46.124,0,0,0,0-6.17,1.514,1.514,0,0,0-1.2-1.538c-2.541-.3-5.7.208-8.3.029Z" transform="translate(-921.201 -520.621)" fill="#fff"/>
  <path id="Path_42723" data-name="Path 42723" d="M806.064,549.99c2.776.17,6.038-.323,8.758-.027a2.332,2.332,0,0,1,2,2,51.346,51.346,0,0,1,0,7.193,2.292,2.292,0,0,1-1.885,2.108c-2.781-.211-5.947.271-8.68,0a2.28,2.28,0,0,1-1.991-2c-.259-2.3.184-5.06.011-7.407a2.379,2.379,0,0,1,1.786-1.865Zm.228,1.025a1.315,1.315,0,0,0-1,1.17,46.988,46.988,0,0,0,0,6.849,1.245,1.245,0,0,0,1.082,1.2c2.646-.19,5.617.243,8.222,0,.8-.075,1.124-.545,1.2-1.313a47.72,47.72,0,0,0,0-6.628,1.3,1.3,0,0,0-1.2-1.308c-2.536-.306-5.7.211-8.306.029Z" transform="translate(-797.189 -520.632)" fill="#fff"/>
  <path id="Path_42736" data-name="Path 42736" d="M793.5,404.309V384h38.166l.17.17v19.968l-.17.17Z" transform="translate(-788.131 -379.089)" fill="#ea4335"/>
  <path id="Path_42737" data-name="Path 42737" d="M959.144,657.269c2.513.157,5.5-.306,7.959-.027.858.1,1.33.438,1.427,1.311a46.686,46.686,0,0,1,0,6.508c-.071.8-.351,1.349-1.2,1.427-2.642.243-5.653-.195-8.337,0a1.055,1.055,0,0,1-.969-.971c-.265-2.242.2-5,.009-7.3a1.291,1.291,0,0,1,1.1-.949Zm1.112,2.483c-.434.151-.3,1.027,0,1.027h5.933c.4,0,.4-1.027,0-1.027Zm0,3.309c-.434.151-.3,1.027,0,1.027h5.933c.4,0,.4-1.027,0-1.027Z" transform="translate(-927.746 -612.194)" fill="#ea4335"/>
  <path id="Path_42738" data-name="Path 42738" d="M812.143,657.351c2.563.12,5.437-.254,7.964-.032a1.341,1.341,0,0,1,1.427,1.311c.2,2.169-.164,4.649,0,6.853a1.241,1.241,0,0,1-1.2,1.086c-2.606.24-5.577-.193-8.222,0a1.265,1.265,0,0,1-1.083-1.083c.2-2.194-.257-4.827,0-6.964A1.262,1.262,0,0,1,812.143,657.351Zm3.595,2.912c.484.484,1.637-.094,1.12-.951S815.055,659.581,815.738,660.263Zm-2.343,1.193c-.505.213-.621.885-.021,1,.907-.14,5.62.239,6.053-.1.38-.3.055-.834-.354-.92l-5.677.021Zm3.427,2.058a.736.736,0,0,0-1.118.948C816.217,665.309,817.5,664.233,816.822,663.514Z" transform="translate(-802.926 -612.276)" fill="#ea4335"/>
  <path id="Path_42739" data-name="Path 42739" d="M959.028,556.722c2.6.18,5.764-.332,8.3-.029a1.515,1.515,0,0,1,1.2,1.538,46.154,46.154,0,0,1,0,6.17c-.079.93-.316,1.445-1.31,1.543-2.557.248-5.509-.2-8.11,0a1.163,1.163,0,0,1-1.086-.968c.208-2.27-.26-4.981,0-7.2a1.231,1.231,0,0,1,1-1.054Zm7.161,4.08h-5.933c-.361,0-.361,1.027,0,1.027h5.933C966.648,561.829,966.6,560.924,966.188,560.8Z" transform="translate(-927.745 -526.33)" fill="#ea4335"/>
  <path id="Path_42740" data-name="Path 42740" d="M811.808,556.711c2.6.183,5.77-.333,8.306-.029a1.3,1.3,0,0,1,1.2,1.308,48.187,48.187,0,0,1,0,6.628c-.071.768-.4,1.24-1.2,1.313-2.606.24-5.577-.193-8.222,0a1.247,1.247,0,0,1-1.082-1.2,46.989,46.989,0,0,1,0-6.849,1.32,1.32,0,0,1,1-1.17Zm3.681,4.082h-2.34c-.49,0-.476,1.027-.114,1.027h2.452v2.34c0,.592,1.141.592,1.141,0v-2.34h2.452c.167,0,.473-.761.03-.951a21.955,21.955,0,0,0-2.484-.075c-.064-.5.2-2.553-.3-2.723h-.54c-.5.172-.234,2.238-.3,2.723Z" transform="translate(-802.705 -526.32)" fill="#ea4335"/>
  <path id="Path_42742" data-name="Path 42742" d="M971.575,674.25h5.933c.4,0,.4,1.027,0,1.027h-5.933C971.275,675.277,971.141,674.4,971.575,674.25Z" transform="translate(-939.062 -626.408)" fill="#fff"/>
  <path id="Path_42743" data-name="Path 42743" d="M971.575,696h5.933c.4,0,.4,1.027,0,1.027h-5.933C971.275,697.027,971.141,696.151,971.575,696Z" transform="translate(-939.062 -645.134)" fill="#fff"/>
  <path id="Path_42744" data-name="Path 42744" d="M824.654,684.791l5.677-.021c.411.087.735.624.354.92-.435.339-5.148-.04-6.053.1-.6-.114-.484-.786.021-1Z" transform="translate(-814.24 -635.612)" fill="#fff"/>
  <path id="Path_42745" data-name="Path 42745" d="M841.335,669.992c-.682-.682.587-1.832,1.12-.951S841.819,670.476,841.335,669.992Z" transform="translate(-828.587 -621.709)" fill="#fff"/>
  <path id="Path_42747" data-name="Path 42747" d="M977.546,584.25c.417.122.459,1.027,0,1.027h-5.933c-.36,0-.36-1.027,0-1.027Z" transform="translate(-939.1 -549.758)" fill="#fff"/>
  <path id="Path_42748" data-name="Path 42748" d="M827.122,569.073c.065-.485-.2-2.551.3-2.723h.54c.5.17.236,2.223.3,2.723a21.323,21.323,0,0,1,2.484.075c.453.195.137.951-.03.951h-2.452v2.34c0,.592-1.141.592-1.141,0V570.1h-2.452c-.362,0-.376-1.027.114-1.027h2.34Z" transform="translate(-814.393 -534.595)" fill="#fff"/>
</svg>
