<svg id="TDS" xmlns="http://www.w3.org/2000/svg" width="46" height="60" viewBox="0 0 46 60">
  <path id="Path_42921" data-name="Path 42921" d="M875.575,466.656H851.711c-2.388-.5-1.574-3.168-1.591-4.8-.144-13.3.038-26.51,0-39.8-.005-2.025-.86-4.721.981-6.184l33.249-.146a2.091,2.091,0,0,1,1.8,2.167l-.177,36.992c-.24.3-2.008.414-2.62.585a11.038,11.038,0,0,0-7.771,11.185Zm-11.128-45.549v11.317l.282.282h4.338a4.133,4.133,0,0,0,1.314-.948,3.718,3.718,0,0,0,.456-1.43,38.159,38.159,0,0,0-.159-7.909,2.369,2.369,0,0,0-1.844-1.74,19.76,19.76,0,0,0-3.723-.04,1.064,1.064,0,0,0-.666.467Zm-6.038,1.037h3.866c.356,0,.356-.943,0-.943h-8.959l.283.943h3.866V432.61c0,.356.943.356.943,0Zm21.5,0,.174-.641-.3-.275c-2.141.113-4.911-.744-6.29,1.385a3.29,3.29,0,0,0,1.561,4.666c1.4.456,3.554.081,3.551,2.5,0,.739-.9,2.169-1.622,2.169h-3.773c-.356,0-.356.943,0,.943h3.773a10.6,10.6,0,0,0,1.291-.6,3.225,3.225,0,0,0-.078-5.143c-1.417-.986-4.013-.146-4.149-2.648-.043-.784.613-2.363,1.428-2.363Zm2.076,17.165H854.828c-.164.9.247.9,1.029.951,8.189-.373,16.772.467,24.913,0a2.666,2.666,0,0,0,1.19-.224l.028-.726Zm-26.878,6.976c-.436.169-.287.943,0,.943h26.6c.356,0,.356-.943,0-.943Zm0,7.168c-.436.169-.287.943,0,.943h26.6c.356,0,.356-.943,0-.943Z" transform="translate(-849.917 -415.73)" fill="#34a853"/>
  <path id="Path_42922" data-name="Path 42922" d="M965.011,575.176c13.117-.822,14.384,18.981,1.639,20.121C953.125,596.508,951.6,576.018,965.011,575.176Zm-1.347,3.967c-3.014-3-6.931,2.82-3.208,5C963.463,585.908,965.985,581.456,963.664,579.143ZM962.6,591.527l.757-.091,5-11.6c.353-.7-.343-1.4-.815-.623l-4.85,11.37-.091.943Zm5.98-5.43c-2.441.555-2.605,5.438.383,5.952C973.347,592.806,973.418,584.995,968.578,586.1Z" transform="translate(-929.56 -535.349)" fill="#34a853"/>
  <path id="Path_42932" data-name="Path 42932" d="M911.252,449.1v-9.9l.282-.283h3.019c.741,0,1.175,1.349,1.233,1.972a44.116,44.116,0,0,1-.02,6.784c-.063.419-.588,1.428-1.026,1.428H911.25Z" transform="translate(-895.981 -433.071)" fill="#34a853"/>
  <path id="Path_42933" data-name="Path 42933" d="M974.221,591.572c1.859-.245,2.832,3.067,1,4.033C972.513,597.032,971.363,591.948,974.221,591.572Z" transform="translate(-942.017 -547.534)" fill="#34a853"/>
  <path id="Path_42934" data-name="Path 42934" d="M1004.25,621.954c3.231-.956,3.365,4.457.545,4.106C1002.681,625.795,1002.714,622.408,1004.25,621.954Z" transform="translate(-965.043 -570.263)" fill="#34a853"/>
</svg>
