<svg xmlns="http://www.w3.org/2000/svg" width="24.005" height="18.92" viewBox="0 0 24.005 18.92">
  <g id="Group_33619" data-name="Group 33619" transform="translate(0 -0.5)">
    <path id="Path_20731" data-name="Path 20731" d="M319.82,185.128a.4.4,0,0,1,.014-.079l1.332-4.368a.461.461,0,0,1,.261-.276,1.186,1.186,0,0,1,.938,0,.462.462,0,0,1,.261.276l1.339,4.368a.4.4,0,0,1,.014.079.385.385,0,0,1-.233.322.945.945,0,0,1-.483.136q-.308,0-.365-.207l-.243-.9h-1.511l-.243.9q-.057.208-.365.207a.945.945,0,0,1-.483-.136.385.385,0,0,1-.233-.322Zm1.554-1.5h1.045l-.523-1.919Zm0,0" transform="translate(-304.826 -171.379)" fill="#383e42"/>
    <path id="Path_20732" data-name="Path 20732" d="M20.6,6.259H15.808V3.909A3.413,3.413,0,0,0,12.4.5H3.409A3.413,3.413,0,0,0,0,3.909v4A3.413,3.413,0,0,0,3.332,11.32a10.548,10.548,0,0,1-.13,1.294A.908.908,0,0,0,4.1,13.661a.92.92,0,0,0,.309-.054,4.146,4.146,0,0,0,2.458-2.286h3.379v2.35a3.413,3.413,0,0,0,3.409,3.409h3.491A4.146,4.146,0,0,0,19.6,19.366a.918.918,0,0,0,.309.054.908.908,0,0,0,.894-1.047,10.552,10.552,0,0,1-.13-1.294A3.413,3.413,0,0,0,24,13.67v-4A3.413,3.413,0,0,0,20.6,6.259Zm2.471,7.412A2.474,2.474,0,0,1,20.6,16.142H20.2a.469.469,0,0,0-.468.451,10.045,10.045,0,0,0,.132,1.872,3.158,3.158,0,0,1-1.958-2,.469.469,0,0,0-.444-.32H13.651a2.474,2.474,0,0,1-2.471-2.472v-4a2.474,2.474,0,0,1,.31-1.2.469.469,0,1,0-.819-.456,3.413,3.413,0,0,0-.429,1.656v.715h-3.7a.469.469,0,0,0-.445.32,3.156,3.156,0,0,1-1.958,2,10.072,10.072,0,0,0,.132-1.872.469.469,0,0,0-.469-.451H3.409A2.474,2.474,0,0,1,.938,7.912v-4A2.474,2.474,0,0,1,3.409,1.438H12.4a2.474,2.474,0,0,1,2.471,2.471v2.35h-.665a.469.469,0,0,0,0,.938H20.6a2.474,2.474,0,0,1,2.471,2.471Zm0,0" fill="#383e42"/>
    <path id="Path_20733" data-name="Path 20733" d="M106.293,40.128a.469.469,0,1,0,0-.938H104.5v-.7a.469.469,0,1,0-.938,0v.7h-1.788a.469.469,0,1,0,0,.938h3.107a4.561,4.561,0,0,1-.848,1.73,5.124,5.124,0,0,1-.571-.934.469.469,0,0,0-.85.4,6.147,6.147,0,0,0,.787,1.248,8.6,8.6,0,0,1-1.785,1.3.469.469,0,1,0,.459.818,9.547,9.547,0,0,0,1.96-1.43,9.486,9.486,0,0,0,1.956,1.43.469.469,0,1,0,.459-.818,8.548,8.548,0,0,1-1.781-1.3,5.433,5.433,0,0,0,1.169-2.441Zm2.585,2.211h0a.469.469,0,1,0,.47.469A.468.468,0,0,0,108.877,42.339Zm0,0" transform="translate(-96.56 -35.761)" fill="#383e42"/>
  </g>
</svg>
